DBRep_DrawableShape

CASCADE Topology V3, (c) Open Cascade
Locations 0
Curve2ds 156
1 7.8539816339744846 0 0 -1 
1 0 0 0 -1 
1 6.2831853071795916 0 0 -1 
1 714 0 0 -1 
1 357.00000000000023 104.68633513032937 -1 0 
1 5.6843418860808015e-14 0 1 0 
1 357.00000000000023 104.68633513032937 -1 0 
1 5.6843418860808015e-14 -4.5 1 0 
1 357.00000000000017 104.66854584836827 -1 0 
1 6.283185307179588 0 0 -1 
1 167.78820432975246 0 0 -1 
1 0 0 1 0 
2 357.00000000000028 96.48633513032938 1 -1.6283271027835706e-15 1.6283271027835706e-15 1 8.1999999999999318
1 0 -4.5 1 0 
2 357.00000000000028 96.48633513032938 1 -1.6283271027835706e-15 1.6283271027835706e-15 1 8.1999999999999318
2 357.00000000000023 96.468545848368279 1 -1.6283271027835706e-15 1.6283271027835706e-15 1 8.1999999999999318
1 7.8539816339744872 0 0 -1 
1 -5.3290705182007514e-15 0 0 -1 
1 0 0 1 0 
2 -356.99999999999983 96.48633513032938 4.7369515717340089e-15 1 -1 4.7369515717340089e-15 8.1999999999999602
1 0 -4.5 1 0 
2 -356.99999999999983 96.48633513032938 4.7369515717340089e-15 1 -1 4.7369515717340089e-15 8.1999999999999602
2 -356.99999999999989 96.468545848368279 4.7369515717340089e-15 1 -1 4.7369515717340089e-15 8.1999999999999602
1 365.20000000000022 -71.301869199423351 0 1 
1 -2.5579538487363607e-13 0 1 0 
1 -365.19999999999976 96.486335130329365 0 -1 
1 1.4210854715202004e-14 0 1 0 
1 0 0 1 0 
2 338.99999999999955 -71.301869199423095 0.11882125112820867 -0.99291566121213304 0.99291566121213304 0.11882125112820867 26.200000000000685
1 0 0 1 0 
2 -339 -71.301869199423436 -1 2.8421709430404222e-15 -2.8421709430404222e-15 -1 26.199999999999761
1 0 0 1 0 
2 2.0142448210393491e-13 2761.511335130368 -0.11882125112818692 -0.99291566121213559 0.99291566121213559 -0.11882125112818692 2879.2250000000399
2 -344.99999999999977 -76.513664869670635 -1 0 0 1 2.25
1 0 1 1 0 
2 -104.9999999999998 -101.51366486967063 -1 0 0 1 2.25
1 0 1 1 0 
2 105.0000000000002 -101.51366486967063 -1 0 0 1 2.25
1 0 1 1 0 
2 345.00000000000023 -76.513664869670635 -1 0 0 1 2.25
1 0 1 1 0 
2 -339.99999999999977 93.486335130329365 -1 0 0 1 2.25
1 0 1 1 0 
2 -28.999999999999797 59.486335130329365 -1 0 0 1 1.6000000000000001
1 0 1 1 0 
2 -99.999999999999801 93.486335130329365 -1 0 0 1 2.25
1 0 1 1 0 
2 -28.999999999999797 87.486335130329365 -1 0 0 1 1.6000000000000001
1 0 1 1 0 
2 29.000000000000203 59.486335130329365 -1 0 0 1 1.6000000000000001
1 0 1 1 0 
2 29.000000000000203 87.486335130329365 -1 0 0 1 1.6000000000000001
1 0 1 1 0 
2 100.0000000000002 93.486335130329365 -1 0 0 1 2.25
1 0 1 1 0 
2 340.00000000000023 93.486335130329365 -1 0 0 1 2.25
1 0 1 1 0 
1 365.20000000000022 -71.301869199423351 0 1 
1 -2.5579538487363607e-13 -4.5 1 0 
1 365.20000000000016 -71.319658481384451 0 1 
1 -365.19999999999976 96.486335130329365 0 -1 
1 1.4210854715202004e-14 -4.5 1 0 
1 -365.19999999999982 96.468545848368265 0 -1 
1 0 -4.5 1 0 
2 338.99999999999955 -71.301869199423095 0.11882125112820867 -0.99291566121213304 0.99291566121213304 0.11882125112820867 26.200000000000685
2 338.99999999999949 -71.319658481384195 0.11882125112820867 -0.99291566121213304 0.99291566121213304 0.11882125112820867 26.200000000000685
1 0 -4.5 1 0 
2 -339 -71.301869199423436 -1 2.8421709430404222e-15 -2.8421709430404222e-15 -1 26.199999999999761
2 -339.00000000000006 -71.319658481384536 -1 2.8421709430404222e-15 -2.8421709430404222e-15 -1 26.199999999999761
1 0 -4.5 1 0 
2 2.0142448210393491e-13 2761.511335130368 -0.11882125112818692 -0.99291566121213559 0.99291566121213559 -0.11882125112818692 2879.2250000000399
2 1.7976086125850838e-13 2761.4935458484069 -0.11882125112818692 -0.99291566121213559 0.99291566121213559 -0.11882125112818692 2879.2250000000399
2 -344.99999999999977 -76.513664869670635 -1 0 0 1 2.25
1 0 5.5 1 0 
2 -104.9999999999998 -101.51366486967063 -1 0 0 1 2.25
1 0 5.5 1 0 
2 105.0000000000002 -101.51366486967063 -1 0 0 1 2.25
1 0 5.5 1 0 
2 345.00000000000023 -76.513664869670635 -1 0 0 1 2.25
1 0 5.5 1 0 
2 -339.99999999999977 93.486335130329365 -1 0 0 1 2.25
1 0 5.5 1 0 
1 0 0 1 0 
2 0 0 1 0 -0 1 4.5
2 -28.999999999999797 59.486335130329365 -1 0 0 1 4.5
2 -99.999999999999801 93.486335130329365 -1 0 0 1 2.25
1 0 5.5 1 0 
1 0 0 1 0 
2 0 0 1 0 -0 1 4.5
2 -28.999999999999797 87.486335130329365 -1 0 0 1 4.5
1 0 0 1 0 
2 0 0 1 0 -0 1 4.5
2 29.000000000000203 59.486335130329365 -1 0 0 1 4.5
1 0 0 1 0 
2 0 0 1 0 -0 1 4.5
2 29.000000000000203 87.486335130329365 -1 0 0 1 4.5
2 100.0000000000002 93.486335130329365 -1 0 0 1 2.25
1 0 5.5 1 0 
2 340.00000000000023 93.486335130329365 -1 0 0 1 2.25
1 0 5.5 1 0 
1 7.7348789953073123 0 0 -1 
1 0 0 0 -1 
1 6.2831853071795889 0 0 -1 
1 167.78820432975283 0 0 -1 
1 6.5213905845138838 0 0 -1 
1 6.283185307179564 0 0 -1 
1 7.7348789953073371 0 0 -1 
1 6.2831853071795862 0 0 -1 
1 6.2831853071795862 -0 0 1 
1 0 -0 0 1 
1 6.2831853071795862 -0 0 1 
1 0 -0 0 1 
1 6.2831853071795862 -0 0 1 
1 0 -0 0 1 
1 6.2831853071795862 -0 0 1 
1 0 -0 0 1 
1 6.2831853071795862 -0 0 1 
1 0 -0 0 1 
2 0 0 1 0 -0 1 1.6000000000000001
1 0 13.5 1 0 
1 6.2831853071795862 -0 0 1 
1 0 -0 0 1 
1 6.2831853071795862 -0 0 1 
1 0 -0 0 1 
2 0 0 1 0 -0 1 1.6000000000000001
1 0 13.5 1 0 
1 6.2831853071795862 -0 0 1 
1 0 -0 0 1 
2 0 0 1 0 -0 1 1.6000000000000001
1 0 13.5 1 0 
1 6.2831853071795862 -0 0 1 
1 0 -0 0 1 
2 0 0 1 0 -0 1 1.6000000000000001
1 0 13.5 1 0 
1 6.2831853071795862 -0 0 1 
1 0 -0 0 1 
1 6.2831853071795862 -0 0 1 
1 0 -0 0 1 
1 6.2831853071795862 -0 0 1 
1 0 -0 0 1 
1 0 8 1 0 
2 0 0 1 0 -0 1 4.5
1 6.2831853071795862 -0 0 1 
1 0 -0 0 1 
1 0 8 1 0 
2 0 0 1 0 -0 1 4.5
1 6.2831853071795862 -0 0 1 
1 0 -0 0 1 
1 0 8 1 0 
2 0 0 1 0 -0 1 4.5
1 6.2831853071795862 -0 0 1 
1 0 -0 0 1 
1 0 8 1 0 
2 0 0 1 0 -0 1 4.5
1 6.2831853071795862 -0 0 1 
1 0 -0 0 1 
Curves 72
1 -357.00000000000006 -3.7999999999999972 0 0 0 1 
1 357 -3.7999999999999972 0 0 0 1 
1 -357 -3.7999999999999972 0 1 0 -0 
1 -357 -3.7999999999999972 4.5 1 0 -0 
1 -365.19999999999999 -12 0 0 0 1 
2 -357.00000000000006 -11.999999999999986 0 -0 0 -1 -1 -1.6283271027835706e-15 0 -1.6283271027835706e-15 1 0 8.1999999999999424
2 -357.00000000000006 -11.999999999999986 4.5 -0 0 -1 -1 -1.6283271027835706e-15 0 -1.6283271027835706e-15 1 0 8.1999999999999424
1 365.20000000000005 -11.99999999999998 0 0 0 1 
2 357.00000000000006 -11.999999999999986 0 0 0 -1 -4.7369515717340089e-15 1 0 1 4.7369515717340089e-15 0 8.1999999999999602
2 357.00000000000006 -11.999999999999986 4.5 0 0 -1 -4.7369515717340089e-15 1 0 1 4.7369515717340089e-15 0 8.1999999999999602
1 -365.19999999999999 -179.78820432975272 0 0 1 0 
1 365.19999999999999 -12 0 -0 -1 0 
2 -338.99999999999932 -179.78820432975246 0 -0 0 -1 -0.11882125112820867 -0.99291566121213304 0 -0.99291566121213304 0.11882125112820867 0 26.200000000000678
2 339.00000000000023 -179.7882043297528 0 0 0 -1 1 2.8421709430404222e-15 0 2.8421709430404222e-15 -1 0 26.199999999999772
2 0 2653.0250000000387 0 0 -0 -1 0.11882125112818692 -0.99291566121213559 0 -0.99291566121213559 -0.11882125112818692 0 2879.2250000000395
2 345 -185 0 0 0 1 1 0 -0 -0 1 0 2.25
2 105 -210 0 0 0 1 1 0 -0 -0 1 0 2.25
2 -105 -210 0 0 0 1 1 0 -0 -0 1 0 2.25
2 -345 -185 0 0 0 1 1 0 -0 -0 1 0 2.25
2 340 -15 0 0 0 1 1 0 -0 -0 1 0 2.25
2 29 -49 0 0 0 1 1 0 -0 -0 1 0 1.6000000000000001
2 100 -15 0 0 0 1 1 0 -0 -0 1 0 2.25
2 29 -21 0 0 0 1 1 0 -0 -0 1 0 1.6000000000000001
2 -29 -49 0 0 0 1 1 0 -0 -0 1 0 1.6000000000000001
2 -29 -21 0 0 0 1 1 0 -0 -0 1 0 1.6000000000000001
2 -100 -15 0 0 0 1 1 0 -0 -0 1 0 2.25
2 -340 -15 0 0 0 1 1 0 -0 -0 1 0 2.25
1 -365.19999999999999 -179.78820432975272 4.5 0 1 0 
1 365.19999999999999 -12 4.5 -0 -1 0 
2 -338.99999999999932 -179.78820432975246 4.5 -0 0 -1 -0.11882125112820867 -0.99291566121213304 0 -0.99291566121213304 0.11882125112820867 0 26.200000000000678
2 339.00000000000023 -179.7882043297528 4.5 0 0 -1 1 2.8421709430404222e-15 0 2.8421709430404222e-15 -1 0 26.199999999999772
2 0 2653.0250000000387 4.5 0 -0 -1 0.11882125112818692 -0.99291566121213559 0 -0.99291566121213559 -0.11882125112818692 0 2879.2250000000395
2 345 -185 4.5 0 0 1 1 0 -0 -0 1 0 2.25
2 105 -210 4.5 0 0 1 1 0 -0 -0 1 0 2.25
2 -105 -210 4.5 0 0 1 1 0 -0 -0 1 0 2.25
2 -345 -185 4.5 0 0 1 1 0 -0 -0 1 0 2.25
2 340 -15 4.5 0 0 1 1 0 -0 -0 1 0 2.25
2 29 -49 4.5 0 0 1 1 0 -0 -0 1 0 4.5
2 100 -15 4.5 0 0 1 1 0 -0 -0 1 0 2.25
2 29 -21 4.5 0 0 1 1 0 -0 -0 1 0 4.5
2 -29 -49 4.5 0 0 1 1 0 -0 -0 1 0 4.5
2 -29 -21 4.5 0 0 1 1 0 -0 -0 1 0 4.5
2 -100 -15 4.5 0 0 1 1 0 -0 -0 1 0 2.25
2 -340 -15 4.5 0 0 1 1 0 -0 -0 1 0 2.25
1 -365.19999999999999 -179.78820432975246 0 0 0 1 
1 365.19999999999999 -179.7882043297528 0 0 0 1 
1 -342.1131167795574 -205.80259465351173 0 0 0 1 
1 342.11311677955871 -205.80259465351054 0 0 0 1 
1 347.25 -185 -1 0 0 1 
1 107.25 -210 -1 0 0 1 
1 -102.75 -210 -1 0 0 1 
1 -342.75 -185 -1 0 0 1 
1 342.25 -15 -1 0 0 1 
2 29 -49 12.5 0 0 1 1 0 -0 -0 1 0 1.6000000000000001
1 30.600000000000001 -49 -1 0 0 1 
1 102.25 -15 -1 0 0 1 
2 29 -21 12.5 0 0 1 1 0 -0 -0 1 0 1.6000000000000001
1 30.600000000000001 -21 -1 0 0 1 
2 -29 -49 12.5 0 0 1 1 0 -0 -0 1 0 1.6000000000000001
1 -27.399999999999999 -49 -1 0 0 1 
2 -29 -21 12.5 0 0 1 1 0 -0 -0 1 0 1.6000000000000001
1 -27.399999999999999 -21 -1 0 0 1 
1 -97.75 -15.000000000000002 -1 0 0 1 
1 -337.75 -15 -1 0 0 1 
2 29 -49 12.5 0 0 1 1 0 -0 -0 1 0 4.5
1 33.5 -49 4.5 0 0 1 
2 29 -21 12.5 0 0 1 1 0 -0 -0 1 0 4.5
1 33.5 -21 4.5 0 0 1 
2 -29 -49 12.5 0 0 1 1 0 -0 -0 1 0 4.5
1 -24.5 -49 4.5 0 0 1 
2 -29 -21 12.5 0 0 1 1 0 -0 -0 1 0 4.5
1 -24.5 -21 4.5 0 0 1 
Polygon3D 0
PolygonOnTriangulations 0
Surfaces 35
1 -357.00000000000006 -3.7999999999999972 0 -0 1 0 1 0 -0 -0 0 -1 
2 -357.00000000000006 -11.999999999999986 0 -0 0 -1 -1 -1.6283271027835706e-15 0 -1.6283271027835706e-15 1 0 8.1999999999999424
2 357.00000000000006 -11.999999999999986 0 0 0 -1 -4.7369515717340089e-15 1 0 1 4.7369515717340089e-15 0 8.1999999999999602
1 2.0142448210393491e-13 -108.48633513032937 0 -0 -0 -1 -1 0 0 0 1 -0 
1 2.0142448210393491e-13 -108.48633513032937 4.5 -0 -0 -1 -1 0 0 0 1 -0 
1 1.7976086125850838e-13 -108.46854584836827 4.5 -0 -0 -1 -1 0 0 0 1 -0 
1 -365.19999999999999 -179.78820432975246 0 -1 0 0 0 1 0 0 0 -1 
1 365.19999999999999 -11.999999999999986 0 1 -0 0 -0 -1 0 0 -0 -1 
2 -338.99999999999932 -179.78820432975246 0 -0 0 -1 -0.11882125112820867 -0.99291566121213304 0 -0.99291566121213304 0.11882125112820867 0 26.200000000000678
2 339.00000000000023 -179.7882043297528 0 0 0 -1 1 2.8421709430404222e-15 0 2.8421709430404222e-15 -1 0 26.199999999999772
2 0 2653.0250000000387 0 0 -0 -1 0.11882125112818692 -0.99291566121213559 0 -0.99291566121213559 -0.11882125112818692 0 2879.2250000000395
2 345 -185 -1 0 0 1 1 0 -0 -0 1 0 2.25
2 105 -210 -1 0 0 1 1 0 -0 -0 1 0 2.25
2 -105 -210 -1 0 0 1 1 0 -0 -0 1 0 2.25
2 -345 -185 -1 0 0 1 1 0 -0 -0 1 0 2.25
2 340 -15 -1 0 0 1 1 0 -0 -0 1 0 2.25
2 29 -49 -1 0 0 1 1 0 -0 -0 1 0 1.6000000000000001
2 100 -15 -1 0 0 1 1 0 -0 -0 1 0 2.25
2 29 -21 -1 0 0 1 1 0 -0 -0 1 0 1.6000000000000001
2 -29 -49 -1 0 0 1 1 0 -0 -0 1 0 1.6000000000000001
2 -29 -21 -1 0 0 1 1 0 -0 -0 1 0 1.6000000000000001
2 -100 -15 -1 0 0 1 1 0 -0 -0 1 0 2.25
2 -340 -15 -1 0 0 1 1 0 -0 -0 1 0 2.25
2 29 -49 4.5 0 0 1 1 0 -0 -0 1 0 4.5
1 29 -49 4.5 0 0 1 1 0 -0 -0 1 0 
2 29 -21 4.5 0 0 1 1 0 -0 -0 1 0 4.5
1 29 -21 4.5 0 0 1 1 0 -0 -0 1 0 
2 -29 -49 4.5 0 0 1 1 0 -0 -0 1 0 4.5
1 -29 -49 4.5 0 0 1 1 0 -0 -0 1 0 
2 -29 -21 4.5 0 0 1 1 0 -0 -0 1 0 4.5
1 -29 -21 4.5 0 0 1 1 0 -0 -0 1 0 
1 29 -49 12.5 0 0 1 1 0 -0 -0 1 0 
1 29 -21 12.5 0 0 1 1 0 -0 -0 1 0 
1 -29 -49 12.5 0 0 1 1 0 -0 -0 1 0 
1 -29 -21 12.5 0 0 1 1 0 -0 -0 1 0 
Triangulations 0

TShapes 211
Ve
1e-07
-357 -3.8 0
0 0

0101101
*
Ve
1e-07
-357 -3.8 4.5
0 0

0101101
*
Ed
 1e-07 1 1 0
1  1 0 0 4.5
2  1 2 0 0 4.5
4 G1 1 0 2 0
2  2 1 0 0 4.5
0

0101000
+211 0 -210 0 *
Ve
1e-07
357 -3.8 0
0 0

0101101
*
Ve
1e-07
357 -3.8 4.5
0 0

0101101
*
Ed
 1e-07 1 1 0
1  2 0 0 4.5
2  3 3 0 0 4.5
4 G1 1 0 3 0
2  4 1 0 0 4.5
0

0101000
+208 0 -207 0 *
Ed
 1e-07 1 1 0
1  3 0 -5.6843418860808e-14 714
2  5 4 0 -5.6843418860808e-14 714
2  6 1 0 -5.6843418860808e-14 714
0

0101000
+211 0 -208 0 *
Ed
 1e-07 1 1 0
1  4 0 -5.6843418860808e-14 714
2  7 5 0 -5.6843418860808e-14 714
2  8 1 0 -5.6843418860808e-14 714
2  9 6 0 -5.6843418860808e-14 714
0

0101000
+210 0 -207 0 *
Wi

0101100
+209 0 -206 0 -205 0 +204 0 *
Fa
0  1e-07 1 0

0101000
+203 0 *
Ve
1e-07
-365.2 -12 0
0 0

0101101
*
Ve
1e-07
-365.2 -12 4.5
0 0

0101101
*
Ed
 1e-07 1 1 0
1  5 0 0 4.5
2  10 2 0 0 4.5
4 G1 7 0 2 0
2  11 7 0 0 4.5
0

0101000
+201 0 -200 0 *
Ed
 1e-07 1 1 0
1  6 0 6.28318530717959 7.85398163397448
2  12 2 0 6.28318530717959 7.85398163397448
2  13 4 0 6.28318530717959 7.85398163397448
0

0101000
+201 0 -211 0 *
Ed
 1e-07 1 1 0
1  7 0 6.28318530717959 7.85398163397448
2  14 2 0 6.28318530717959 7.85398163397448
2  15 5 0 6.28318530717959 7.85398163397448
2  16 6 0 6.28318530717959 7.85398163397448
0

0101000
+200 0 -210 0 *
Wi

0101100
+199 0 -209 0 -198 0 +197 0 *
Fa
0  1e-07 2 0

0101000
+196 0 *
Ve
1e-07
365.2 -12 0
0 0

0101101
*
Ve
1e-07
365.2 -12 4.5
0 0

0101101
*
Ed
 1e-07 1 1 0
1  8 0 0 4.5
2  17 3 0 0 4.5
4 G1 3 0 8 0
2  18 8 0 0 4.5
0

0101000
+194 0 -193 0 *
Ed
 1e-07 1 1 0
1  9 0 6.28318530717959 7.85398163397449
2  19 3 0 6.28318530717959 7.85398163397449
2  20 4 0 6.28318530717959 7.85398163397449
0

0101000
+208 0 -194 0 *
Ed
 1e-07 1 1 0
1  10 0 6.28318530717959 7.85398163397449
2  21 3 0 6.28318530717959 7.85398163397449
2  22 5 0 6.28318530717959 7.85398163397449
2  23 6 0 6.28318530717959 7.85398163397449
0

0101000
+207 0 -193 0 *
Wi

0101100
+206 0 -192 0 -191 0 +190 0 *
Fa
0  1e-07 3 0

0101000
+189 0 *
Ve
1e-07
-365.2 -179.788204329752 0
0 0

0101101
*
Ed
 1e-07 1 1 0
1  11 0 2.55795384873636e-13 167.788204329753
2  24 4 0 2.55795384873636e-13 167.788204329753
2  25 7 0 2.55795384873636e-13 167.788204329753
0

0101000
+187 0 -201 0 *
Ve
1e-07
365.2 -179.788204329753 0
0 0

0101101
*
Ed
 1e-07 1 1 0
1  12 0 -1.4210854715202e-14 167.788204329753
2  26 4 0 -1.4210854715202e-14 167.788204329753
2  27 8 0 -1.4210854715202e-14 167.788204329753
0

0101000
+194 0 -185 0 *
Ve
1e-07
-342.113116779557 -205.802594653512 0
0 0

0101101
*
Ed
 1e-07 1 1 0
1  13 0 6.28318530717956 7.73487899530731
2  28 9 0 6.28318530717956 7.73487899530731
2  29 4 0 6.28318530717956 7.73487899530731
0

0101000
+183 0 -187 0 *
Ve
1e-07
342.113116779559 -205.802594653511 0
0 0

0101101
*
Ed
 1e-07 1 1 0
1  14 0 6.28318530717959 7.73487899530734
2  30 10 0 6.28318530717959 7.73487899530734
2  31 4 0 6.28318530717959 7.73487899530734
0

0101000
+185 0 -181 0 *
Ed
 1e-07 1 1 0
1  15 0 6.28318530717959 6.52139058451388
2  32 11 0 6.28318530717959 6.52139058451388
2  33 4 0 6.28318530717959 6.52139058451388
0

0101000
+181 0 -183 0 *
Wi

0101100
+205 0 +198 0 +191 0 +186 0 +184 0 +182 0 +180 0 +179 0 *
Ve
1e-07
347.25 -185 0
0 0

0101101
*
Ed
 1e-07 1 1 0
1  16 0 0 6.28318530717959
2  34 4 0 0 6.28318530717959
2  35 12 0 0 6.28318530717959
0

0101100
+177 0 -177 0 *
Wi

0101100
+176 0 *
Ve
1e-07
107.25 -210 0
0 0

0101101
*
Ed
 1e-07 1 1 0
1  17 0 0 6.28318530717959
2  36 4 0 0 6.28318530717959
2  37 13 0 0 6.28318530717959
0

0101100
+174 0 -174 0 *
Wi

0101100
+173 0 *
Ve
1e-07
-102.75 -210 0
0 0

0101101
*
Ed
 1e-07 1 1 0
1  18 0 0 6.28318530717959
2  38 4 0 0 6.28318530717959
2  39 14 0 0 6.28318530717959
0

0101100
+171 0 -171 0 *
Wi

0101100
+170 0 *
Ve
1e-07
-342.75 -185 0
0 0

0101101
*
Ed
 1e-07 1 1 0
1  19 0 0 6.28318530717959
2  40 4 0 0 6.28318530717959
2  41 15 0 0 6.28318530717959
0

0101100
+168 0 -168 0 *
Wi

0101100
+167 0 *
Ve
1e-07
342.25 -15 0
0 0

0101101
*
Ed
 1e-07 1 1 0
1  20 0 0 6.28318530717959
2  42 4 0 0 6.28318530717959
2  43 16 0 0 6.28318530717959
0

0101100
+165 0 -165 0 *
Wi

0101100
+164 0 *
Ve
1e-07
30.6 -49 0
0 0

0101101
*
Ed
 1e-07 1 1 0
1  21 0 0 6.28318530717959
2  44 4 0 0 6.28318530717959
2  45 17 0 0 6.28318530717959
0

0101100
+162 0 -162 0 *
Wi

0101100
+161 0 *
Ve
1e-07
102.25 -15 0
0 0

0101101
*
Ed
 1e-07 1 1 0
1  22 0 0 6.28318530717959
2  46 4 0 0 6.28318530717959
2  47 18 0 0 6.28318530717959
0

0101100
+159 0 -159 0 *
Wi

0101100
+158 0 *
Ve
1e-07
30.6 -21 0
0 0

0101101
*
Ed
 1e-07 1 1 0
1  23 0 0 6.28318530717959
2  48 4 0 0 6.28318530717959
2  49 19 0 0 6.28318530717959
0

0101100
+156 0 -156 0 *
Wi

0101100
+155 0 *
Ve
1e-07
-27.4 -49 0
0 0

0101101
*
Ed
 1e-07 1 1 0
1  24 0 0 6.28318530717959
2  50 4 0 0 6.28318530717959
2  51 20 0 0 6.28318530717959
0

0101100
+153 0 -153 0 *
Wi

0101100
+152 0 *
Ve
1e-07
-27.4 -21 0
0 0

0101101
*
Ed
 1e-07 1 1 0
1  25 0 0 6.28318530717959
2  52 4 0 0 6.28318530717959
2  53 21 0 0 6.28318530717959
0

0101100
+150 0 -150 0 *
Wi

0101100
+149 0 *
Ve
1.00000001776357e-07
-97.75 -15 0
0 0

0101101
*
Ed
 1e-07 1 1 0
1  26 0 0 6.28318530717959
2  54 4 0 0 6.28318530717959
2  55 22 0 0 6.28318530717959
0

0101100
+147 0 -147 0 *
Wi

0101100
+146 0 *
Ve
1e-07
-337.75 -15 0
0 0

0101101
*
Ed
 1e-07 1 1 0
1  27 0 0 6.28318530717959
2  56 4 0 0 6.28318530717959
2  57 23 0 0 6.28318530717959
0

0101100
+144 0 -144 0 *
Wi

0101100
+143 0 *
Fa
0  1e-07 4 0

0101000
+178 0 +175 0 +172 0 +169 0 +166 0 +163 0 +160 0 +157 0 +154 0 +151 0 
+148 0 +145 0 +142 0 *
Ve
1e-07
-365.2 -179.788204329752 4.5
0 0

0101101
*
Ed
 1e-07 1 1 0
1  28 0 2.55795384873636e-13 167.788204329753
2  58 5 0 2.55795384873636e-13 167.788204329753
2  59 7 0 2.55795384873636e-13 167.788204329753
2  60 6 0 2.55795384873636e-13 167.788204329753
0

0101000
+140 0 -200 0 *
Ve
1e-07
365.2 -179.788204329753 4.5
0 0

0101101
*
Ed
 1e-07 1 1 0
1  29 0 -1.4210854715202e-14 167.788204329753
2  61 5 0 -1.4210854715202e-14 167.788204329753
2  62 8 0 -1.4210854715202e-14 167.788204329753
2  63 6 0 -1.4210854715202e-14 167.788204329753
0

0101000
+193 0 -138 0 *
Ve
1e-07
-342.113116779557 -205.802594653512 4.5
0 0

0101101
*
Ed
 1e-07 1 1 0
1  30 0 6.28318530717956 7.73487899530731
2  64 9 0 6.28318530717956 7.73487899530731
2  65 5 0 6.28318530717956 7.73487899530731
2  66 6 0 6.28318530717956 7.73487899530731
0

0101000
+136 0 -140 0 *
Ve
1e-07
342.113116779559 -205.802594653511 4.5
0 0

0101101
*
Ed
 1e-07 1 1 0
1  31 0 6.28318530717959 7.73487899530734
2  67 10 0 6.28318530717959 7.73487899530734
2  68 5 0 6.28318530717959 7.73487899530734
2  69 6 0 6.28318530717959 7.73487899530734
0

0101000
+138 0 -134 0 *
Ed
 1e-07 1 1 0
1  32 0 6.28318530717959 6.52139058451388
2  70 11 0 6.28318530717959 6.52139058451388
2  71 5 0 6.28318530717959 6.52139058451388
2  72 6 0 6.28318530717959 6.52139058451388
0

0101000
+134 0 -136 0 *
Wi

0101100
+204 0 +197 0 +190 0 +139 0 +137 0 +135 0 +133 0 +132 0 *
Ve
1e-07
347.25 -185 4.5
0 0

0101101
*
Ed
 1e-07 1 1 0
1  33 0 0 6.28318530717959
2  73 5 0 0 6.28318530717959
2  74 12 0 0 6.28318530717959
0

0101100
+130 0 -130 0 *
Wi

0101100
+129 0 *
Ve
1e-07
107.25 -210 4.5
0 0

0101101
*
Ed
 1e-07 1 1 0
1  34 0 0 6.28318530717959
2  75 5 0 0 6.28318530717959
2  76 13 0 0 6.28318530717959
0

0101100
+127 0 -127 0 *
Wi

0101100
+126 0 *
Ve
1e-07
-102.75 -210 4.5
0 0

0101101
*
Ed
 1e-07 1 1 0
1  35 0 0 6.28318530717959
2  77 5 0 0 6.28318530717959
2  78 14 0 0 6.28318530717959
0

0101100
+124 0 -124 0 *
Wi

0101100
+123 0 *
Ve
1e-07
-342.75 -185 4.5
0 0

0101101
*
Ed
 1e-07 1 1 0
1  36 0 0 6.28318530717959
2  79 5 0 0 6.28318530717959
2  80 15 0 0 6.28318530717959
0

0101100
+121 0 -121 0 *
Wi

0101100
+120 0 *
Ve
1e-07
342.25 -15 4.5
0 0

0101101
*
Ed
 1e-07 1 1 0
1  37 0 0 6.28318530717959
2  81 5 0 0 6.28318530717959
2  82 16 0 0 6.28318530717959
0

0101100
+118 0 -118 0 *
Wi

0101100
+117 0 *
Ve
1e-07
33.5 -49 4.5
0 0

0101101
*
Ed
 1e-07 1 1 0
1  38 0 0 6.28318530717959
2  83 24 0 0 6.28318530717959
2  84 25 0 0 6.28318530717959
2  85 5 0 0 6.28318530717959
0

0101000
+115 0 -115 0 *
Wi

0101100
+114 0 *
Ve
1e-07
102.25 -15 4.5
0 0

0101101
*
Ed
 1e-07 1 1 0
1  39 0 0 6.28318530717959
2  86 5 0 0 6.28318530717959
2  87 18 0 0 6.28318530717959
0

0101100
+112 0 -112 0 *
Wi

0101100
+111 0 *
Ve
1e-07
33.5 -21 4.5
0 0

0101101
*
Ed
 1e-07 1 1 0
1  40 0 0 6.28318530717959
2  88 26 0 0 6.28318530717959
2  89 27 0 0 6.28318530717959
2  90 5 0 0 6.28318530717959
0

0101000
+109 0 -109 0 *
Wi

0101100
+108 0 *
Ve
1e-07
-24.5 -49 4.5
0 0

0101101
*
Ed
 1e-07 1 1 0
1  41 0 0 6.28318530717959
2  91 28 0 0 6.28318530717959
2  92 29 0 0 6.28318530717959
2  93 5 0 0 6.28318530717959
0

0101000
+106 0 -106 0 *
Wi

0101100
+105 0 *
Ve
1e-07
-24.5 -21 4.5
0 0

0101101
*
Ed
 1e-07 1 1 0
1  42 0 0 6.28318530717959
2  94 30 0 0 6.28318530717959
2  95 31 0 0 6.28318530717959
2  96 5 0 0 6.28318530717959
0

0101000
+103 0 -103 0 *
Wi

0101100
+102 0 *
Ve
1.00000001776357e-07
-97.75 -15 4.5
0 0

0101101
*
Ed
 1e-07 1 1 0
1  43 0 0 6.28318530717959
2  97 5 0 0 6.28318530717959
2  98 22 0 0 6.28318530717959
0

0101100
+100 0 -100 0 *
Wi

0101100
+99 0 *
Ve
1e-07
-337.75 -15 4.5
0 0

0101101
*
Ed
 1e-07 1 1 0
1  44 0 0 6.28318530717959
2  99 5 0 0 6.28318530717959
2  100 23 0 0 6.28318530717959
0

0101100
+97 0 -97 0 *
Wi

0101100
+96 0 *
Fa
0  1e-07 5 0

0101000
+131 0 +128 0 +125 0 +122 0 +119 0 +116 0 +113 0 +110 0 +107 0 +104 0 
+101 0 +98 0 +95 0 *
Ed
 1e-07 1 1 0
1  45 0 0 4.5
2  101 9 0 0 4.5
4 G1 9 0 7 0
2  102 7 0 0 4.5
0

0101000
+187 0 -140 0 *
Wi

0101100
+93 0 -199 0 -186 0 +139 0 *
Fa
0  1e-07 7 0

0101000
+92 0 *
Ed
 1e-07 1 1 0
1  46 0 0 4.5
2  103 10 0 0 4.5
4 G1 8 0 10 0
2  104 8 0 0 4.5
0

0101000
+185 0 -138 0 *
Wi

0101100
+192 0 -90 0 -184 0 +137 0 *
Fa
0  1e-07 8 0

0101000
+89 0 *
Ed
 1e-07 1 1 0
1  47 0 0 4.5
2  105 11 0 0 4.5
2  106 9 0 0 4.5
4 G1 11 0 9 0
0

0101000
+183 0 -136 0 *
Wi

0101100
+87 0 -93 0 -182 0 +135 0 *
Fa
0  1e-07 9 0

0101000
+86 0 *
Ed
 1e-07 1 1 0
1  48 0 0 4.5
2  107 10 0 0 4.5
2  108 11 0 0 4.5
4 G1 10 0 11 0
0

0101000
+181 0 -134 0 *
Wi

0101100
+90 0 -84 0 -180 0 +133 0 *
Fa
0  1e-07 10 0

0101000
+83 0 *
Wi

0101100
+84 0 -87 0 -179 0 +132 0 *
Fa
0  1e-07 11 0

0101000
+81 0 *
Ed
 1e-07 1 1 0
1  49 0 1 5.5
3  109 110CN 12 0 1 5.5
0

0101000
+177 0 -130 0 *
Wi

0101100
-129 0 +79 0 +176 0 -79 0 *
Fa
0  1e-07 12 0

0101000
+78 0 *
Ed
 1e-07 1 1 0
1  50 0 1 5.5
3  111 112CN 13 0 1 5.5
0

0101000
+174 0 -127 0 *
Wi

0101100
-126 0 +76 0 +173 0 -76 0 *
Fa
0  1e-07 13 0

0101000
+75 0 *
Ed
 1e-07 1 1 0
1  51 0 1 5.5
3  113 114CN 14 0 1 5.5
0

0101000
+171 0 -124 0 *
Wi

0101100
-123 0 +73 0 +170 0 -73 0 *
Fa
0  1e-07 14 0

0101000
+72 0 *
Ed
 1e-07 1 1 0
1  52 0 1 5.5
3  115 116CN 15 0 1 5.5
0

0101000
+168 0 -121 0 *
Wi

0101100
-120 0 +70 0 +167 0 -70 0 *
Fa
0  1e-07 15 0

0101000
+69 0 *
Ed
 1e-07 1 1 0
1  53 0 1 5.5
3  117 118CN 16 0 1 5.5
0

0101000
+165 0 -118 0 *
Wi

0101100
-117 0 +67 0 +164 0 -67 0 *
Fa
0  1e-07 16 0

0101000
+66 0 *
Ve
1e-07
30.6 -49 12.5
0 0

0101101
*
Ed
 1e-07 1 1 0
1  54 0 0 6.28318530717959
2  119 32 0 0 6.28318530717959
2  120 17 0 0 6.28318530717959
0

0101100
+64 0 -64 0 *
Ed
 1e-07 1 1 0
1  55 0 1 13.5
3  121 122CN 17 0 1 13.5
0

0101000
+162 0 -64 0 *
Wi

0101100
-63 0 +62 0 +161 0 -62 0 *
Fa
0  1e-07 17 0

0101000
+61 0 *
Ed
 1e-07 1 1 0
1  56 0 1 5.5
3  123 124CN 18 0 1 5.5
0

0101000
+159 0 -112 0 *
Wi

0101100
-111 0 +59 0 +158 0 -59 0 *
Fa
0  1e-07 18 0

0101000
+58 0 *
Ve
1e-07
30.6 -21 12.5
0 0

0101101
*
Ed
 1e-07 1 1 0
1  57 0 0 6.28318530717959
2  125 33 0 0 6.28318530717959
2  126 19 0 0 6.28318530717959
0

0101100
+56 0 -56 0 *
Ed
 1e-07 1 1 0
1  58 0 1 13.5
3  127 128CN 19 0 1 13.5
0

0101000
+156 0 -56 0 *
Wi

0101100
-55 0 +54 0 +155 0 -54 0 *
Fa
0  1e-07 19 0

0101000
+53 0 *
Ve
1e-07
-27.4 -49 12.5
0 0

0101101
*
Ed
 1e-07 1 1 0
1  59 0 0 6.28318530717959
2  129 34 0 0 6.28318530717959
2  130 20 0 0 6.28318530717959
0

0101100
+51 0 -51 0 *
Ed
 1e-07 1 1 0
1  60 0 1 13.5
3  131 132CN 20 0 1 13.5
0

0101000
+153 0 -51 0 *
Wi

0101100
-50 0 +49 0 +152 0 -49 0 *
Fa
0  1e-07 20 0

0101000
+48 0 *
Ve
1e-07
-27.4 -21 12.5
0 0

0101101
*
Ed
 1e-07 1 1 0
1  61 0 0 6.28318530717959
2  133 35 0 0 6.28318530717959
2  134 21 0 0 6.28318530717959
0

0101100
+46 0 -46 0 *
Ed
 1e-07 1 1 0
1  62 0 1 13.5
3  135 136CN 21 0 1 13.5
0

0101000
+150 0 -46 0 *
Wi

0101100
-45 0 +44 0 +149 0 -44 0 *
Fa
0  1e-07 21 0

0101000
+43 0 *
Ed
 1e-07 1 1 0
1  63 0 1 5.5
3  137 138CN 22 0 1 5.5
0

0101000
+147 0 -100 0 *
Wi

0101100
-99 0 +41 0 +146 0 -41 0 *
Fa
0  1e-07 22 0

0101000
+40 0 *
Ed
 1e-07 1 1 0
1  64 0 1 5.5
3  139 140CN 23 0 1 5.5
0

0101000
+144 0 -97 0 *
Wi

0101100
-96 0 +38 0 +143 0 -38 0 *
Fa
0  1e-07 23 0

0101000
+37 0 *
Ve
1e-07
33.5 -49 12.5
0 0

0101101
*
Ed
 1e-07 1 1 0
1  65 0 0 6.28318530717959
2  141 24 0 0 6.28318530717959
2  142 32 0 0 6.28318530717959
0

0101000
+35 0 -35 0 *
Ed
 1e-07 1 1 0
1  66 0 0 8
3  143 144CN 24 0 0 8
0

0101000
-35 0 +115 0 *
Wi

0101100
-34 0 +33 0 +114 0 -33 0 *
Fa
0  1e-07 24 0

0101000
+32 0 *
Ve
1e-07
33.5 -21 12.5
0 0

0101101
*
Ed
 1e-07 1 1 0
1  67 0 0 6.28318530717959
2  145 26 0 0 6.28318530717959
2  146 33 0 0 6.28318530717959
0

0101000
+30 0 -30 0 *
Ed
 1e-07 1 1 0
1  68 0 0 8
3  147 148CN 26 0 0 8
0

0101000
-30 0 +109 0 *
Wi

0101100
-29 0 +28 0 +108 0 -28 0 *
Fa
0  1e-07 26 0

0101000
+27 0 *
Ve
1e-07
-24.5 -49 12.5
0 0

0101101
*
Ed
 1e-07 1 1 0
1  69 0 0 6.28318530717959
2  149 28 0 0 6.28318530717959
2  150 34 0 0 6.28318530717959
0

0101000
+25 0 -25 0 *
Ed
 1e-07 1 1 0
1  70 0 0 8
3  151 152CN 28 0 0 8
0

0101000
-25 0 +106 0 *
Wi

0101100
-24 0 +23 0 +105 0 -23 0 *
Fa
0  1e-07 28 0

0101000
+22 0 *
Ve
1e-07
-24.5 -21 12.5
0 0

0101101
*
Ed
 1e-07 1 1 0
1  71 0 0 6.28318530717959
2  153 30 0 0 6.28318530717959
2  154 35 0 0 6.28318530717959
0

0101000
+20 0 -20 0 *
Ed
 1e-07 1 1 0
1  72 0 0 8
3  155 156CN 30 0 0 8
0

0101000
-20 0 +103 0 *
Wi

0101100
-19 0 +18 0 +102 0 -18 0 *
Fa
0  1e-07 30 0

0101000
+17 0 *
Wi

0101100
+34 0 *
Wi

0101100
-63 0 *
Fa
0  1e-07 32 0

0101000
+15 0 +14 0 *
Wi

0101100
+29 0 *
Wi

0101100
-55 0 *
Fa
0  1e-07 33 0

0101000
+12 0 +11 0 *
Wi

0101100
+24 0 *
Wi

0101100
-50 0 *
Fa
0  1e-07 34 0

0101000
+9 0 +8 0 *
Wi

0101100
+19 0 *
Wi

0101100
-45 0 *
Fa
0  1e-07 35 0

0101000
+6 0 +5 0 *
Sh

0101100
+202 0 +195 0 +188 0 +141 0 -94 0 +91 0 +88 0 +85 0 +82 0 +80 0 
-77 0 -74 0 -71 0 -68 0 -65 0 -60 0 -57 0 -52 0 -47 0 -42 0 
-39 0 -36 0 +31 0 +26 0 +21 0 +16 0 +13 0 +10 0 +7 0 +4 0 
*
So

0100000
+3 0 *
Co

1100000
+2 0 *

+1 0 