DBRep_DrawableShape

CASCADE Topology V3, (c) Open Cascade
Locations 0
Curve2ds 382
1 4.8113553858002192 0 0 -1 
1 114.52453703166017 0 0 -1 
1 0 0 0 -1 
1 349.99999999999841 0 0 -1 
1 -174.99999999999972 -67.508211688050039 -0.99510682104817694 0.098804932586342362 
1 0 0 1 0 
1 -174.99999999999997 -67.531976774513623 -0.99510682104817694 0.098804932586342362 
1 -174.99999999999972 -67.508211688050039 -0.99510682104817694 0.098804932586342362 
1 0 -2 1 0 
1 -8.0033844901402011e-13 -0 0 -1 
1 -7.9580786405131221e-13 0 0 -1 
1 174.99999999999869 -67.508211688050039 -1 0 
1 0 0 1 0 
1 174.99999999999844 -67.531976774513623 -1 0 
1 174.99999999999869 -67.508211688050039 -1 0 
1 0 -2 1 0 
1 4.6134225749691602 0 0 -1 
1 114.52453703166017 0 0 -1 
1 175.00000000000028 -67.508211688050039 0.99510682104817694 0.098804932586342362 
1 0 0 1 0 
1 175.00000000000003 -67.531976774513623 0.99510682104817694 0.098804932586342362 
1 175.00000000000028 -67.508211688050039 0.99510682104817694 0.098804932586342362 
1 0 -2 1 0 
1 3.1415926535897931 0 0 -1 
1 82.831206207659008 0 0 -1 
1 0 0 1 0 
2 286.00000000000045 -26.339417895709346 -1 0 0 1 30
2 286.00000000000023 -26.36318298217293 -1 0 0 1 30
1 0 -2 1 0 
2 286.00000000000045 -26.339417895709346 -1 0 0 1 30
1 3.1415926535897931 0 0 -1 
1 0 0 0 -1 
1 316.00000000000023 56.491788311949662 2.7441348545638185e-15 -1 
1 0 0 1 0 
1 316 56.468023225486078 2.7441348545638185e-15 -1 
1 316.00000000000023 56.491788311949662 2.7441348545638185e-15 -1 
1 0 -2 1 0 
1 1.5707963267948966 0 0 -1 
1 0 0 0 -1 
1 0 0 1 0 
2 311.00000000000023 56.491788311949662 -1 0 0 1 5
2 311 56.468023225486078 -1 0 0 1 5
1 0 -2 1 0 
2 311.00000000000023 56.491788311949662 -1 0 0 1 5
1 1.5707963267948966 0 0 -1 
1 622 0 0 -1 
1 311.00000000000023 61.491788311949762 -1 3.1985846625856601e-16 
1 0 0 1 0 
1 311 61.468023225486178 -1 3.1985846625856601e-16 
1 311.00000000000023 61.491788311949762 -1 3.1985846625856601e-16 
1 0 -2 1 0 
1 0 0 0 -1 
1 0 0 0 -1 
1 0 0 1 0 
2 -310.99999999999977 56.491788311949961 -1 0 0 1 5
2 -311 56.468023225486377 -1 0 0 1 5
1 0 -2 1 0 
2 -310.99999999999977 56.491788311949961 -1 0 0 1 5
1 6.2831853071795862 0 0 -1 
1 82.831206207659307 0 0 -1 
1 -315.99999999999977 56.491788311949961 0 -1 
1 0 0 1 0 
1 -316 56.468023225486377 0 -1 
1 -315.99999999999977 56.491788311949961 0 -1 
1 0 -2 1 0 
1 0 0 1 0 
2 -285.99999999999977 -26.339417895709346 -1 0 0 1 30
2 -286 -26.36318298217293 -1 0 0 1 30
1 0 -2 1 0 
2 -285.99999999999977 -26.339417895709346 -1 0 0 1 30
1 4.5999999999998948 0 0 -1 
1 0 0 0 -1 
1 0 0 0 -1 
1 0 0 0 -1 
1 312.30000000000018 57.791788311949659 0 -1 
1 0 0 1 0 
1 312.30000000000018 57.791788311949659 0 -1 
1 0 -2 1 0 
1 4.5999999999999091 0 0 -1 
1 4.5999999999998948 0 0 -1 
1 312.30000000000018 53.191788311949765 -1 0 
1 0 0 1 0 
1 312.30000000000018 53.191788311949765 -1 0 
1 0 -2 1 0 
1 4.5999999999999091 0 0 -1 
1 0 0 0 -1 
1 307.70000000000027 57.791788311949659 0 -1 
1 0 0 1 0 
1 307.70000000000027 57.791788311949659 0 -1 
1 0 -2 1 0 
1 312.30000000000018 57.791788311949659 -1 0 
1 0 0 1 0 
1 312.30000000000018 57.791788311949659 -1 0 
1 0 -2 1 0 
1 4.5999999999999091 0 0 -1 
1 0 0 0 -1 
1 0 0 0 -1 
1 0 0 0 -1 
1 312.30000000000018 -27.208211688050312 0 -1 
1 0 0 1 0 
1 312.30000000000018 -27.208211688050312 0 -1 
1 0 -2 1 0 
1 4.5999999999999091 0 0 -1 
1 4.5999999999999091 0 0 -1 
1 312.30000000000018 -31.808211688050221 -1 0 
1 0 0 1 0 
1 312.30000000000018 -31.808211688050221 -1 0 
1 0 -2 1 0 
1 0 0 0 -1 
1 4.5999999999999091 0 0 -1 
1 307.70000000000027 -27.208211688050312 0 -1 
1 0 0 1 0 
1 307.70000000000027 -27.208211688050312 0 -1 
1 0 -2 1 0 
1 312.30000000000018 -27.208211688050312 -1 0 
1 0 0 1 0 
1 312.30000000000018 -27.208211688050312 -1 0 
1 0 -2 1 0 
1 4.5999999999999091 0 0 -1 
1 0 0 0 -1 
1 0 0 0 -1 
1 0 0 0 -1 
1 2.3000000000004004 -58.90821168805013 0 -1 
1 0 0 1 0 
1 2.3000000000004004 -58.90821168805013 0 -1 
1 0 -2 1 0 
1 4.5999999999999091 0 0 -1 
1 4.600000000000307 0 0 -1 
1 2.3000000000004004 -63.508211688050039 -1 0 
1 0 0 1 0 
1 2.3000000000004004 -63.508211688050039 -1 0 
1 0 -2 1 0 
1 0 0 0 -1 
1 4.600000000000307 0 0 -1 
1 -2.2999999999999066 -58.90821168805013 0 -1 
1 0 0 1 0 
1 -2.2999999999999066 -58.90821168805013 0 -1 
1 0 -2 1 0 
1 2.3000000000004004 -58.90821168805013 -1 0 
1 0 0 1 0 
1 2.3000000000004004 -58.90821168805013 -1 0 
1 0 -2 1 0 
1 4.5999999999998948 0 0 -1 
1 0 0 0 -1 
1 0 0 0 -1 
1 0 0 0 -1 
1 2.3000000000004004 57.791788311949659 0 -1 
1 0 0 1 0 
1 2.3000000000004004 57.791788311949659 0 -1 
1 0 -2 1 0 
1 4.600000000000307 0 0 -1 
1 4.5999999999998948 0 0 -1 
1 2.3000000000004004 53.191788311949765 -1 0 
1 0 0 1 0 
1 2.3000000000004004 53.191788311949765 -1 0 
1 0 -2 1 0 
1 0 0 0 -1 
1 4.600000000000307 0 0 -1 
1 -2.2999999999999066 57.791788311949659 0 -1 
1 0 0 1 0 
1 -2.2999999999999066 57.791788311949659 0 -1 
1 0 -2 1 0 
1 2.3000000000004004 57.791788311949659 -1 0 
1 0 0 1 0 
1 2.3000000000004004 57.791788311949659 -1 0 
1 0 -2 1 0 
1 0 -0 0 -1 
1 0 0 0 -1 
1 4.6000000000004775 0 0 -1 
1 0 0 0 -1 
1 -312.29999999999995 57.791788311949659 1 0 
1 0 -0 1 0 
1 -312.29999999999995 57.791788311949659 1 0 
1 0 -2 1 0 
1 4.5999999999998948 0 0 -1 
1 4.6000000000004775 0 0 -1 
1 -307.69999999999948 57.791788311949659 0 -1 
1 0 0 1 0 
1 -307.69999999999948 57.791788311949659 0 -1 
1 0 -2 1 0 
1 4.5999999999998948 0 0 -1 
1 0 -0 0 -1 
1 -312.29999999999995 53.191788311949765 1 0 
1 0 -0 1 0 
1 -312.29999999999995 53.191788311949765 1 0 
1 0 -2 1 0 
1 -312.29999999999995 57.791788311949659 0 -1 
1 0 0 1 0 
1 -312.29999999999995 57.791788311949659 0 -1 
1 0 -2 1 0 
1 0 -0 0 -1 
1 0 0 0 -1 
1 4.6000000000004775 0 0 -1 
1 0 0 0 -1 
1 -312.29999999999995 -27.208211688050312 1 0 
1 0 -0 1 0 
1 -312.29999999999995 -27.208211688050312 1 0 
1 0 -2 1 0 
1 4.5999999999999091 0 0 -1 
1 4.6000000000004775 0 0 -1 
1 -307.69999999999948 -27.208211688050312 0 -1 
1 0 0 1 0 
1 -307.69999999999948 -27.208211688050312 0 -1 
1 0 -2 1 0 
1 0 -0 0 -1 
1 4.5999999999999091 0 0 -1 
1 -312.29999999999995 -31.808211688050221 1 0 
1 0 -0 1 0 
1 -312.29999999999995 -31.808211688050221 1 0 
1 0 -2 1 0 
1 -312.29999999999995 -27.208211688050312 0 -1 
1 0 0 1 0 
1 -312.29999999999995 -27.208211688050312 0 -1 
1 0 -2 1 0 
1 0 0 0 -1 
1 6.2831853071795862 0 0 -1 
1 0 0 1 0 
2 -16.999999999999726 5.4917883119499606 -1 0 0 1 12
1 0 -2 1 0 
2 -16.999999999999726 5.4917883119499606 -1 0 0 1 12
1 0 0 0 -1 
1 6.2831853071795862 0 0 -1 
1 0 0 1 0 
2 17.00000000000016 5.4917883119497333 -1 0 0 1 12
1 0 -2 1 0 
2 17.00000000000016 5.4917883119497333 -1 0 0 1 12
1 0 0 0 -1 
1 6.2831853071795862 0 0 -1 
1 0 0 1 0 
2 245.41200000000069 0.33578831194995473 -1 0 0 1 12
1 0 -2 1 0 
2 245.41200000000069 0.33578831194995473 -1 0 0 1 12
1 0 0 0 -1 
1 6.2831853071795862 0 0 -1 
1 0 0 1 0 
2 -113.97699999999931 0.33578831194995473 -1 0 0 1 12
1 0 -2 1 0 
2 -113.97699999999931 0.33578831194995473 -1 0 0 1 12
1 0 0 0 -1 
1 6.2831853071795862 0 0 -1 
1 0 0 1 0 
2 186.41200000000069 -13.664211688050045 -1 0 0 1 15
1 0 -2 1 0 
2 186.41200000000069 -13.664211688050045 -1 0 0 1 15
1 0 0 0 -1 
1 6.2831853071795862 0 0 -1 
1 0 0 1 0 
2 179.41200000000069 24.835788311949955 -1 0 0 1 15
1 0 -2 1 0 
2 179.41200000000069 24.835788311949955 -1 0 0 1 15
1 0 0 0 -1 
1 6.2831853071795862 0 0 -1 
1 0 0 1 0 
2 153.41200000000069 0.33578831194995473 -1 0 0 1 15
1 0 -2 1 0 
2 153.41200000000069 0.33578831194995473 -1 0 0 1 15
1 0 0 0 -1 
1 6.2831853071795862 0 0 -1 
1 0 0 1 0 
2 146.41200000000069 38.835788311949955 -1 0 0 1 15
1 0 -2 1 0 
2 146.41200000000069 38.835788311949955 -1 0 0 1 15
1 0 0 0 -1 
1 6.2831853071795862 0 0 -1 
1 0 0 1 0 
2 117.41200000000067 -5.6642116880500453 -1 0 0 1 15
1 0 -2 1 0 
2 117.41200000000067 -5.6642116880500453 -1 0 0 1 15
1 0 0 0 -1 
1 6.2831853071795862 0 0 -1 
1 0 0 1 0 
2 110.91200000000067 32.835788311949955 -1 0 0 1 15
1 0 -2 1 0 
2 110.91200000000067 32.835788311949955 -1 0 0 1 15
1 0 0 0 -1 
1 6.2831853071795862 0 0 -1 
1 0 0 1 0 
2 83.412000000000674 -20.664211688050045 -1 0 0 1 15
1 0 -2 1 0 
2 83.412000000000674 -20.664211688050045 -1 0 0 1 15
1 0 0 0 -1 
1 6.2831853071795862 0 0 -1 
1 0 0 1 0 
2 76.912000000000674 17.835788311949955 -1 0 0 1 15
1 0 -2 1 0 
2 76.912000000000674 17.835788311949955 -1 0 0 1 15
1 0 0 0 -1 
1 6.2831853071795862 0 0 -1 
1 0 0 1 0 
2 270.41200000000072 36.835788311949955 -1 0 0 1 2.25
1 0 -2 1 0 
2 270.41200000000072 36.835788311949955 -1 0 0 1 2.25
1 0 0 0 -1 
1 6.2831853071795862 0 0 -1 
1 0 0 1 0 
2 220.41200000000069 36.835788311949955 -1 0 0 1 2.25
1 0 -2 1 0 
2 220.41200000000069 36.835788311949955 -1 0 0 1 2.25
1 0 0 0 -1 
1 6.2831853071795862 0 0 -1 
1 0 0 1 0 
2 270.41200000000072 -36.164211688050045 -1 0 0 1 2.25
1 0 -2 1 0 
2 270.41200000000072 -36.164211688050045 -1 0 0 1 2.25
1 0 0 0 -1 
1 6.2831853071795862 0 0 -1 
1 0 0 1 0 
2 220.41200000000069 -36.164211688050045 -1 0 0 1 2.25
1 0 -2 1 0 
2 220.41200000000069 -36.164211688050045 -1 0 0 1 2.25
1 0 0 0 -1 
1 6.2831853071795862 0 0 -1 
1 0 0 1 0 
2 -176.97699999999929 19.335788311949955 -1 0 0 1 15
1 0 -2 1 0 
2 -176.97699999999929 19.335788311949955 -1 0 0 1 15
1 0 0 0 -1 
1 6.2831853071795862 0 0 -1 
1 0 0 1 0 
2 -176.97699999999929 -19.664211688050045 -1 0 0 1 15
1 0 -2 1 0 
2 -176.97699999999929 -19.664211688050045 -1 0 0 1 15
1 0 0 0 -1 
1 6.2831853071795862 0 0 -1 
1 0 0 1 0 
2 -207.47699999999929 0.33578831194995473 -1 0 0 1 15
1 0 -2 1 0 
2 -207.47699999999929 0.33578831194995473 -1 0 0 1 15
1 0 0 0 -1 
1 6.2831853071795862 0 0 -1 
1 0 0 1 0 
2 -207.47699999999929 39.335788311949955 -1 0 0 1 15
1 0 -2 1 0 
2 -207.47699999999929 39.335788311949955 -1 0 0 1 15
1 0 0 0 -1 
1 6.2831853071795862 0 0 -1 
1 0 0 1 0 
2 -243.47699999999929 39.335788311949955 -1 0 0 1 15
1 0 -2 1 0 
2 -243.47699999999929 39.335788311949955 -1 0 0 1 15
1 0 0 0 -1 
1 6.2831853071795862 0 0 -1 
1 0 0 1 0 
2 -243.47699999999929 0.33578831194995473 -1 0 0 1 15
1 0 -2 1 0 
2 -243.47699999999929 0.33578831194995473 -1 0 0 1 15
1 0 0 0 -1 
1 6.2831853071795862 0 0 -1 
1 0 0 1 0 
2 -278.97699999999929 30.335788311949955 -1 0 0 1 15
1 0 -2 1 0 
2 -278.97699999999929 30.335788311949955 -1 0 0 1 15
1 0 0 0 -1 
1 6.2831853071795862 0 0 -1 
1 0 0 1 0 
2 -278.97699999999929 -8.6642116880500453 -1 0 0 1 15
1 0 -2 1 0 
2 -278.97699999999929 -8.6642116880500453 -1 0 0 1 15
1 0 0 0 -1 
1 6.2831853071795862 0 0 -1 
1 0 0 1 0 
2 -88.976999999999308 36.835788311949955 -1 0 0 1 2.25
1 0 -2 1 0 
2 -88.976999999999308 36.835788311949955 -1 0 0 1 2.25
1 0 0 0 -1 
1 6.2831853071795862 0 0 -1 
1 0 0 1 0 
2 -138.97699999999929 36.835788311949955 -1 0 0 1 2.25
1 0 -2 1 0 
2 -138.97699999999929 36.835788311949955 -1 0 0 1 2.25
1 0 0 0 -1 
1 6.2831853071795862 0 0 -1 
1 0 0 1 0 
2 -88.976999999999308 -36.164211688050045 -1 0 0 1 2.25
1 0 -2 1 0 
2 -88.976999999999308 -36.164211688050045 -1 0 0 1 2.25
1 0 0 0 -1 
1 6.2831853071795862 0 0 -1 
1 0 0 1 0 
2 -138.97699999999929 -36.164211688050045 -1 0 0 1 2.25
1 0 -2 1 0 
2 -138.97699999999929 -36.164211688050045 -1 0 0 1 2.25
Curves 186
1 288.96414797758962 -183.48441083910473 68 0 0 1 
1 175.00000000000006 -194.80000000000001 68 0 0 1 
1 175.00000000000006 -194.80000000000001 68 0.99510682104817683 0.098804932586342348 0 
1 175.00000000000006 -194.80000000000001 70 0.99510682104817683 0.098804932586342348 0 
1 -174.99999999999915 -194.80000000000001 68 0 0 1 
1 -174.99999999999835 -194.80000000000001 68 1 0 0 
1 -174.99999999999835 -194.80000000000001 70 1 0 0 
1 -288.9641479775895 -183.48441083910473 68 0 0 1 
1 -174.99999999999994 -194.80000000000001 68 -0.99510682104817683 0.098804932586342348 0 
1 -174.99999999999994 -194.80000000000001 70 -0.99510682104817683 0.098804932586342348 0 
1 -316.00000000000011 -153.63120620765932 68 0 0 1 
2 -286.00000000000011 -153.63120620765932 68 0 0 1 1 0 -0 -0 1 0 30
2 -286.00000000000011 -153.63120620765932 70 0 0 1 1 0 -0 -0 1 0 30
1 -315.99999999999989 -70.80000000000031 68 0 0 1 
1 -315.99999999999989 -70.80000000000031 68 -2.7441348545638185e-15 -1 0 
1 -315.99999999999989 -70.80000000000031 70 -2.7441348545638185e-15 -1 0 
1 -310.99999999999989 -65.800000000000239 68 0 0 1 
2 -310.99999999999989 -70.80000000000031 68 0 0 1 1 0 -0 -0 1 0 5
2 -310.99999999999989 -70.80000000000031 70 0 0 1 1 0 -0 -0 1 0 5
1 311.00000000000011 -65.800000000000011 68 0 0 1 
1 -310.99999999999989 -65.80000000000021 68 1 3.1985846625856601e-16 0 
1 -310.99999999999989 -65.80000000000021 70 1 3.1985846625856601e-16 0 
1 316.00000000000011 -70.800000000000011 68 0 0 1 
2 311.00000000000011 -70.800000000000011 68 0 0 1 1 0 -0 -0 1 0 5
2 311.00000000000011 -70.800000000000011 70 0 0 1 1 0 -0 -0 1 0 5
1 316.00000000000011 -153.63120620765932 68 0 0 1 
1 316.00000000000011 -70.800000000000011 68 0 -1 0 
1 316.00000000000011 -70.800000000000011 70 0 -1 0 
2 286.00000000000011 -153.63120620765932 68 0 0 1 1 0 -0 -0 1 0 30
2 286.00000000000011 -153.63120620765932 70 0 0 1 1 0 -0 -0 1 0 30
1 -312.29999999999984 -74.100000000000207 68 0 0 1 
1 -312.29999999999984 -69.500000000000313 68 0 0 1 
1 -312.29999999999984 -69.500000000000313 68 0 -1 0 
1 -312.29999999999984 -69.500000000000313 70 0 -1 0 
1 -307.69999999999993 -74.100000000000207 68 0 0 1 
1 -312.29999999999984 -74.100000000000207 68 1 0 0 
1 -312.29999999999984 -74.100000000000207 70 1 0 0 
1 -307.69999999999993 -69.500000000000313 68 0 0 1 
1 -307.69999999999993 -69.500000000000313 68 0 -1 0 
1 -307.69999999999993 -69.500000000000313 70 0 -1 0 
1 -312.29999999999984 -69.500000000000313 68 1 0 0 
1 -312.29999999999984 -69.500000000000313 70 1 0 0 
1 -312.29999999999984 -159.10000000000019 68 0 0 1 
1 -312.29999999999984 -154.50000000000028 68 0 0 1 
1 -312.29999999999984 -154.50000000000028 68 0 -1 0 
1 -312.29999999999984 -154.50000000000028 70 0 -1 0 
1 -307.69999999999993 -159.10000000000019 68 0 0 1 
1 -312.29999999999984 -159.10000000000019 68 1 0 0 
1 -312.29999999999984 -159.10000000000019 70 1 0 0 
1 -307.69999999999993 -154.50000000000028 68 0 0 1 
1 -307.69999999999993 -154.50000000000028 68 0 -1 0 
1 -307.69999999999993 -154.50000000000028 70 0 -1 0 
1 -312.29999999999984 -154.50000000000028 68 1 0 0 
1 -312.29999999999984 -154.50000000000028 70 1 0 0 
1 -2.3000000000000682 -190.80000000000001 68 0 0 1 
1 -2.3000000000000682 -186.2000000000001 68 0 0 1 
1 -2.3000000000000682 -186.2000000000001 68 0 -1 0 
1 -2.3000000000000682 -186.2000000000001 70 0 -1 0 
1 2.3000000000002387 -190.80000000000001 68 0 0 1 
1 -2.3000000000000682 -190.80000000000001 68 1 0 0 
1 -2.3000000000000682 -190.80000000000001 70 1 0 0 
1 2.3000000000002387 -186.2000000000001 68 0 0 1 
1 2.3000000000002387 -186.2000000000001 68 0 -1 0 
1 2.3000000000002387 -186.2000000000001 70 0 -1 0 
1 -2.3000000000000682 -186.2000000000001 68 1 0 0 
1 -2.3000000000000682 -186.2000000000001 70 1 0 0 
1 -2.3000000000000682 -74.100000000000207 68 0 0 1 
1 -2.3000000000000682 -69.500000000000313 68 0 0 1 
1 -2.3000000000000682 -69.500000000000313 68 0 -1 0 
1 -2.3000000000000682 -69.500000000000313 70 0 -1 0 
1 2.3000000000002387 -74.100000000000207 68 0 0 1 
1 -2.3000000000000682 -74.100000000000207 68 1 0 0 
1 -2.3000000000000682 -74.100000000000207 70 1 0 0 
1 2.3000000000002387 -69.500000000000313 68 0 0 1 
1 2.3000000000002387 -69.500000000000313 68 0 -1 0 
1 2.3000000000002387 -69.500000000000313 70 0 -1 0 
1 -2.3000000000000682 -69.500000000000313 68 1 0 0 
1 -2.3000000000000682 -69.500000000000313 70 1 0 0 
1 312.3000000000003 -69.500000000000313 68 0 0 1 
1 307.69999999999982 -69.500000000000313 68 0 0 1 
1 312.3000000000003 -69.500000000000313 68 -1 0 0 
1 312.3000000000003 -69.500000000000313 70 -1 0 0 
1 307.69999999999982 -74.100000000000207 68 0 0 1 
1 307.69999999999982 -69.500000000000313 68 0 -1 0 
1 307.69999999999982 -69.500000000000313 70 0 -1 0 
1 312.3000000000003 -74.100000000000207 68 0 0 1 
1 312.3000000000003 -74.100000000000207 68 -1 0 0 
1 312.3000000000003 -74.100000000000207 70 -1 0 0 
1 312.3000000000003 -69.500000000000313 68 0 -1 0 
1 312.3000000000003 -69.500000000000313 70 0 -1 0 
1 312.3000000000003 -154.50000000000028 68 0 0 1 
1 307.69999999999982 -154.50000000000028 68 0 0 1 
1 312.3000000000003 -154.50000000000028 68 -1 0 0 
1 312.3000000000003 -154.50000000000028 70 -1 0 0 
1 307.69999999999982 -159.10000000000019 68 0 0 1 
1 307.69999999999982 -154.50000000000028 68 0 -1 0 
1 307.69999999999982 -154.50000000000028 70 0 -1 0 
1 312.3000000000003 -159.10000000000019 68 0 0 1 
1 312.3000000000003 -159.10000000000019 68 -1 0 0 
1 312.3000000000003 -159.10000000000019 70 -1 0 0 
1 312.3000000000003 -154.50000000000028 68 0 -1 0 
1 312.3000000000003 -154.50000000000028 70 0 -1 0 
1 29.000000000000057 -121.80000000000001 68 0 0 1 
2 17.000000000000057 -121.80000000000001 68 0 0 1 1 0 -0 -0 1 0 12
2 17.000000000000057 -121.80000000000001 70 0 0 1 1 0 -0 -0 1 0 12
1 -4.9999999999998295 -121.80000000000024 68 0 0 1 
2 -16.999999999999829 -121.80000000000024 68 0 0 1 1 0 -0 -0 1 0 12
2 -16.999999999999829 -121.80000000000024 70 0 0 1 1 0 -0 -0 1 0 12
1 -233.41200000000035 -126.95600000000002 68 0 0 1 
2 -245.41200000000035 -126.95600000000002 68 0 0 1 1 0 -0 -0 1 0 12
2 -245.41200000000035 -126.95600000000002 70 0 0 1 1 0 -0 -0 1 0 12
1 125.97699999999963 -126.95600000000002 68 0 0 1 
2 113.97699999999963 -126.95600000000002 68 0 0 1 1 0 -0 -0 1 0 12
2 113.97699999999963 -126.95600000000002 70 0 0 1 1 0 -0 -0 1 0 12
1 -171.41200000000035 -140.95600000000002 68 0 0 1 
2 -186.41200000000035 -140.95600000000002 68 0 0 1 1 0 -0 -0 1 0 15
2 -186.41200000000035 -140.95600000000002 70 0 0 1 1 0 -0 -0 1 0 15
1 -164.41200000000035 -102.45600000000002 68 0 0 1 
2 -179.41200000000035 -102.45600000000002 68 0 0 1 1 0 -0 -0 1 0 15
2 -179.41200000000035 -102.45600000000002 70 0 0 1 1 0 -0 -0 1 0 15
1 -138.41200000000035 -126.95600000000002 68 0 0 1 
2 -153.41200000000035 -126.95600000000002 68 0 0 1 1 0 -0 -0 1 0 15
2 -153.41200000000035 -126.95600000000002 70 0 0 1 1 0 -0 -0 1 0 15
1 -131.41200000000035 -88.456000000000017 68 0 0 1 
2 -146.41200000000035 -88.456000000000017 68 0 0 1 1 0 -0 -0 1 0 15
2 -146.41200000000035 -88.456000000000017 70 0 0 1 1 0 -0 -0 1 0 15
1 -102.41200000000035 -132.95600000000002 68 0 0 1 
2 -117.41200000000035 -132.95600000000002 68 0 0 1 1 0 -0 -0 1 0 15
2 -117.41200000000035 -132.95600000000002 70 0 0 1 1 0 -0 -0 1 0 15
1 -95.912000000000347 -94.456000000000017 68 0 0 1 
2 -110.91200000000035 -94.456000000000017 68 0 0 1 1 0 -0 -0 1 0 15
2 -110.91200000000035 -94.456000000000017 70 0 0 1 1 0 -0 -0 1 0 15
1 -68.412000000000347 -147.95600000000002 68 0 0 1 
2 -83.412000000000347 -147.95600000000002 68 0 0 1 1 0 -0 -0 1 0 15
2 -83.412000000000347 -147.95600000000002 70 0 0 1 1 0 -0 -0 1 0 15
1 -61.912000000000347 -109.45600000000002 68 0 0 1 
2 -76.912000000000347 -109.45600000000002 68 0 0 1 1 0 -0 -0 1 0 15
2 -76.912000000000347 -109.45600000000002 70 0 0 1 1 0 -0 -0 1 0 15
1 -268.16200000000038 -90.456000000000017 68 0 0 1 
2 -270.41200000000038 -90.456000000000017 68 0 0 1 1 0 -0 -0 1 0 2.25
2 -270.41200000000038 -90.456000000000017 70 0 0 1 1 0 -0 -0 1 0 2.25
1 -218.16200000000035 -90.456000000000017 68 0 0 1 
2 -220.41200000000035 -90.456000000000017 68 0 0 1 1 0 -0 -0 1 0 2.25
2 -220.41200000000035 -90.456000000000017 70 0 0 1 1 0 -0 -0 1 0 2.25
1 -268.16200000000038 -163.45600000000002 68 0 0 1 
2 -270.41200000000038 -163.45600000000002 68 0 0 1 1 0 -0 -0 1 0 2.25
2 -270.41200000000038 -163.45600000000002 70 0 0 1 1 0 -0 -0 1 0 2.25
1 -218.16200000000035 -163.45600000000002 68 0 0 1 
2 -220.41200000000035 -163.45600000000002 68 0 0 1 1 0 -0 -0 1 0 2.25
2 -220.41200000000035 -163.45600000000002 70 0 0 1 1 0 -0 -0 1 0 2.25
1 191.97699999999963 -107.95600000000002 68 0 0 1 
2 176.97699999999963 -107.95600000000002 68 0 0 1 1 0 -0 -0 1 0 15
2 176.97699999999963 -107.95600000000002 70 0 0 1 1 0 -0 -0 1 0 15
1 191.97699999999963 -146.95600000000002 68 0 0 1 
2 176.97699999999963 -146.95600000000002 68 0 0 1 1 0 -0 -0 1 0 15
2 176.97699999999963 -146.95600000000002 70 0 0 1 1 0 -0 -0 1 0 15
1 222.47699999999963 -126.95600000000002 68 0 0 1 
2 207.47699999999963 -126.95600000000002 68 0 0 1 1 0 -0 -0 1 0 15
2 207.47699999999963 -126.95600000000002 70 0 0 1 1 0 -0 -0 1 0 15
1 222.47699999999963 -87.956000000000017 68 0 0 1 
2 207.47699999999963 -87.956000000000017 68 0 0 1 1 0 -0 -0 1 0 15
2 207.47699999999963 -87.956000000000017 70 0 0 1 1 0 -0 -0 1 0 15
1 258.47699999999963 -87.956000000000017 68 0 0 1 
2 243.47699999999963 -87.956000000000017 68 0 0 1 1 0 -0 -0 1 0 15
2 243.47699999999963 -87.956000000000017 70 0 0 1 1 0 -0 -0 1 0 15
1 258.47699999999963 -126.95600000000002 68 0 0 1 
2 243.47699999999963 -126.95600000000002 68 0 0 1 1 0 -0 -0 1 0 15
2 243.47699999999963 -126.95600000000002 70 0 0 1 1 0 -0 -0 1 0 15
1 293.97699999999963 -96.956000000000017 68 0 0 1 
2 278.97699999999963 -96.956000000000017 68 0 0 1 1 0 -0 -0 1 0 15
2 278.97699999999963 -96.956000000000017 70 0 0 1 1 0 -0 -0 1 0 15
1 293.97699999999963 -135.95600000000002 68 0 0 1 
2 278.97699999999963 -135.95600000000002 68 0 0 1 1 0 -0 -0 1 0 15
2 278.97699999999963 -135.95600000000002 70 0 0 1 1 0 -0 -0 1 0 15
1 91.226999999999634 -90.456000000000017 68 0 0 1 
2 88.976999999999634 -90.456000000000017 68 0 0 1 1 0 -0 -0 1 0 2.25
2 88.976999999999634 -90.456000000000017 70 0 0 1 1 0 -0 -0 1 0 2.25
1 141.22699999999963 -90.456000000000017 68 0 0 1 
2 138.97699999999963 -90.456000000000017 68 0 0 1 1 0 -0 -0 1 0 2.25
2 138.97699999999963 -90.456000000000017 70 0 0 1 1 0 -0 -0 1 0 2.25
1 91.226999999999634 -163.45600000000002 68 0 0 1 
2 88.976999999999634 -163.45600000000002 68 0 0 1 1 0 -0 -0 1 0 2.25
2 88.976999999999634 -163.45600000000002 70 0 0 1 1 0 -0 -0 1 0 2.25
1 141.22699999999963 -163.45600000000002 68 0 0 1 
2 138.97699999999963 -163.45600000000002 68 0 0 1 1 0 -0 -0 1 0 2.25
2 138.97699999999963 -163.45600000000002 70 0 0 1 1 0 -0 -0 1 0 2.25
Polygon3D 0
PolygonOnTriangulations 0
Surfaces 65
1 175.00000000000006 -194.80000000000001 68 -0.098804932586342362 0.99510682104817694 0 0.99510682104817694 0.098804932586342362 0 0 0 -1 
2 286.00000000000011 -153.63120620765932 68 -0 -0 -1 1 0 -0 -0 1 0 30
1 -174.99999999999835 -194.80000000000001 68 0 1 0 1 0 0 0 0 -1 
1 3.3200974679245427e-13 -127.29178831194997 68 -0 -0 -1 -1 0 0 0 1 -0 
1 9.913093567168182e-14 -127.26802322548639 67.999999999999972 -0 -0 -1 -1 0 0 0 1 -0 
1 3.3200974679245427e-13 -127.29178831194997 70 -0 -0 -1 -1 0 0 0 1 -0 
1 -174.99999999999994 -194.80000000000001 68 -0.098804932586342362 -0.99510682104817694 0 -0.99510682104817694 0.098804932586342362 0 -0 0 -1 
2 -286.00000000000011 -153.63120620765932 68 -0 -0 -1 1 0 -0 -0 1 0 30
1 -315.99999999999989 -70.80000000000031 68 1 -2.7441348545638185e-15 0 -2.7441348545638185e-15 -1 0 0 -0 -1 
2 -310.99999999999989 -70.80000000000031 68 -0 -0 -1 1 0 -0 -0 1 0 5
1 -310.99999999999989 -65.80000000000021 68 -3.1985846625856601e-16 1 0 1 3.1985846625856601e-16 0 0 0 -1 
2 311.00000000000011 -70.800000000000011 68 -0 -0 -1 1 0 -0 -0 1 0 5
1 316.00000000000011 -70.800000000000011 68 1 0 -0 0 -1 0 0 -0 -1 
1 -312.29999999999984 -69.500000000000313 68 1 0 -0 0 -1 0 0 -0 -1 
1 -312.29999999999984 -74.100000000000207 68 0 1 0 1 0 0 0 0 -1 
1 -312.29999999999984 -69.500000000000313 68 0 1 0 1 0 0 0 0 -1 
1 -307.69999999999993 -69.500000000000313 68 1 0 -0 0 -1 0 0 -0 -1 
1 -312.29999999999984 -154.50000000000028 68 1 0 -0 0 -1 0 0 -0 -1 
1 -312.29999999999984 -159.10000000000019 68 0 1 0 1 0 0 0 0 -1 
1 -312.29999999999984 -154.50000000000028 68 0 1 0 1 0 0 0 0 -1 
1 -307.69999999999993 -154.50000000000028 68 1 0 -0 0 -1 0 0 -0 -1 
1 -2.3000000000000682 -186.2000000000001 68 1 0 -0 0 -1 0 0 -0 -1 
1 -2.3000000000000682 -190.80000000000001 68 0 1 0 1 0 0 0 0 -1 
1 -2.3000000000000682 -186.2000000000001 68 0 1 0 1 0 0 0 0 -1 
1 2.3000000000002387 -186.2000000000001 68 1 0 -0 0 -1 0 0 -0 -1 
1 -2.3000000000000682 -69.500000000000313 68 1 0 -0 0 -1 0 0 -0 -1 
1 -2.3000000000000682 -74.100000000000207 68 0 1 0 1 0 0 0 0 -1 
1 -2.3000000000000682 -69.500000000000313 68 0 1 0 1 0 0 0 0 -1 
1 2.3000000000002387 -69.500000000000313 68 1 0 -0 0 -1 0 0 -0 -1 
1 312.3000000000003 -69.500000000000313 68 0 -1 0 -1 0 0 -0 -0 -1 
1 312.3000000000003 -69.500000000000313 68 1 0 -0 0 -1 0 0 -0 -1 
1 307.69999999999982 -69.500000000000313 68 1 0 -0 0 -1 0 0 -0 -1 
1 312.3000000000003 -74.100000000000207 68 0 -1 0 -1 0 0 -0 -0 -1 
1 312.3000000000003 -154.50000000000028 68 0 -1 0 -1 0 0 -0 -0 -1 
1 312.3000000000003 -154.50000000000028 68 1 0 -0 0 -1 0 0 -0 -1 
1 307.69999999999982 -154.50000000000028 68 1 0 -0 0 -1 0 0 -0 -1 
1 312.3000000000003 -159.10000000000019 68 0 -1 0 -1 0 0 -0 -0 -1 
2 17.000000000000057 -121.80000000000001 68 -0 -0 -1 1 0 -0 -0 1 0 12
2 -16.999999999999829 -121.80000000000024 68 -0 -0 -1 1 0 -0 -0 1 0 12
2 -245.41200000000035 -126.95600000000002 68 -0 -0 -1 1 0 -0 -0 1 0 12
2 113.97699999999963 -126.95600000000002 68 -0 -0 -1 1 0 -0 -0 1 0 12
2 -186.41200000000035 -140.95600000000002 68 -0 -0 -1 1 0 -0 -0 1 0 15
2 -179.41200000000035 -102.45600000000002 68 -0 -0 -1 1 0 -0 -0 1 0 15
2 -153.41200000000035 -126.95600000000002 68 -0 -0 -1 1 0 -0 -0 1 0 15
2 -146.41200000000035 -88.456000000000017 68 -0 -0 -1 1 0 -0 -0 1 0 15
2 -117.41200000000035 -132.95600000000002 68 -0 -0 -1 1 0 -0 -0 1 0 15
2 -110.91200000000035 -94.456000000000017 68 -0 -0 -1 1 0 -0 -0 1 0 15
2 -83.412000000000347 -147.95600000000002 68 -0 -0 -1 1 0 -0 -0 1 0 15
2 -76.912000000000347 -109.45600000000002 68 -0 -0 -1 1 0 -0 -0 1 0 15
2 -270.41200000000038 -90.456000000000017 68 -0 -0 -1 1 0 -0 -0 1 0 2.25
2 -220.41200000000035 -90.456000000000017 68 -0 -0 -1 1 0 -0 -0 1 0 2.25
2 -270.41200000000038 -163.45600000000002 68 -0 -0 -1 1 0 -0 -0 1 0 2.25
2 -220.41200000000035 -163.45600000000002 68 -0 -0 -1 1 0 -0 -0 1 0 2.25
2 176.97699999999963 -107.95600000000002 68 -0 -0 -1 1 0 -0 -0 1 0 15
2 176.97699999999963 -146.95600000000002 68 -0 -0 -1 1 0 -0 -0 1 0 15
2 207.47699999999963 -126.95600000000002 68 -0 -0 -1 1 0 -0 -0 1 0 15
2 207.47699999999963 -87.956000000000017 68 -0 -0 -1 1 0 -0 -0 1 0 15
2 243.47699999999963 -87.956000000000017 68 -0 -0 -1 1 0 -0 -0 1 0 15
2 243.47699999999963 -126.95600000000002 68 -0 -0 -1 1 0 -0 -0 1 0 15
2 278.97699999999963 -96.956000000000017 68 -0 -0 -1 1 0 -0 -0 1 0 15
2 278.97699999999963 -135.95600000000002 68 -0 -0 -1 1 0 -0 -0 1 0 15
2 88.976999999999634 -90.456000000000017 68 -0 -0 -1 1 0 -0 -0 1 0 2.25
2 138.97699999999963 -90.456000000000017 68 -0 -0 -1 1 0 -0 -0 1 0 2.25
2 88.976999999999634 -163.45600000000002 68 -0 -0 -1 1 0 -0 -0 1 0 2.25
2 138.97699999999963 -163.45600000000002 68 -0 -0 -1 1 0 -0 -0 1 0 2.25
Triangulations 0

TShapes 508
Ve
1.00010911769434e-07
288.96414797759 -183.484410839105 68
0 0

0101101
*
Ve
1.00010911769434e-07
288.96414797759 -183.484410839105 70
0 0

0101101
*
Ed
 1.00010911769434e-07 1 1 0
1  1 0 0 2
2  1 2 0 0 2
4 G1 1 0 2 0
2  2 1 0 0 2
0

0101000
+508 0 -507 0 *
Ve
1.00000028421709e-07
175 -194.8 68
0 0

0101101
*
Ve
1e-07
175 -194.8 70
0 0

0101101
*
Ed
 1e-07 1 1 0
1  2 0 0 2
2  3 1 0 0 2
2  4 3 0 0 2
0

0101000
+505 0 -504 0 *
Ed
 1.00000028421709e-07 1 1 0
1  3 0 0 114.524537031661
2  5 4 0 0 114.524537031661
2  6 1 0 0 114.524537031661
2  7 5 0 0 114.524537031661
0

0101000
-508 0 +505 0 *
Ed
 1e-07 1 1 0
1  4 0 0 114.524537031661
2  8 6 0 0 114.524537031661
2  9 1 0 0 114.524537031661
0

0101000
-507 0 +504 0 *
Wi

0101100
-506 0 +503 0 -502 0 +501 0 *
Fa
0  1e-07 1 0

0101000
+500 0 *
Ve
1.00010795887445e-07
-174.999999999999 -194.8 68
0 0

0101101
*
Ve
1.00010795887445e-07
-174.999999999999 -194.8 70
0 0

0101101
*
Ed
 1.00010795887445e-07 1 1 0
1  5 0 0 2
2  10 7 0 0 2
2  11 3 0 0 2
0

0101000
+498 0 -497 0 *
Ed
 1.00000028421709e-07 1 1 0
1  6 0 0 349.999999999998
2  12 4 0 0 349.999999999998
2  13 3 0 0 349.999999999998
2  14 5 0 0 349.999999999998
0

0101000
-505 0 +498 0 *
Ed
 1e-07 1 1 0
1  7 0 0 349.999999999998
2  15 6 0 0 349.999999999998
2  16 3 0 0 349.999999999998
0

0101000
-504 0 +497 0 *
Wi

0101100
-503 0 +496 0 -495 0 +494 0 *
Fa
0  1e-07 3 0

0101000
+493 0 *
Ve
1.00010878099227e-07
-288.96414797759 -183.484410839105 68
0 0

0101101
*
Ve
1.00010878099227e-07
-288.96414797759 -183.484410839105 70
0 0

0101101
*
Ed
 1.00010878099227e-07 1 1 0
1  8 0 0 2
2  17 8 0 0 2
4 G1 7 0 8 0
2  18 7 0 0 2
0

0101000
+491 0 -490 0 *
Ed
 1.00000028421709e-07 1 1 0
1  9 0 0 114.524537031661
2  19 4 0 0 114.524537031661
2  20 7 0 0 114.524537031661
2  21 5 0 0 114.524537031661
0

0101000
+498 0 -491 0 *
Ed
 1e-07 1 1 0
1  10 0 0 114.524537031661
2  22 6 0 0 114.524537031661
2  23 7 0 0 114.524537031661
0

0101000
+497 0 -490 0 *
Wi

0101100
+496 0 -489 0 -488 0 +487 0 *
Fa
0  1e-07 7 0

0101000
+486 0 *
Ve
1.00010003966582e-07
-316 -153.631206207659 68
0 0

0101101
*
Ve
1.00010003966582e-07
-316 -153.631206207659 70
0 0

0101101
*
Ed
 1.00010003966582e-07 1 1 0
1  11 0 0 2
2  24 8 0 0 2
4 G1 8 0 9 0
2  25 9 0 0 2
0

0101000
+484 0 -483 0 *
Ed
 1.00000028421709e-07 1 1 0
1  12 0 3.14159265358979 4.61342257496916
2  26 8 0 3.14159265358979 4.61342257496916
2  27 4 0 3.14159265358979 4.61342257496916
2  28 5 0 3.14159265358979 4.61342257496916
0

0101000
-491 0 +484 0 *
Ed
 1e-07 1 1 0
1  13 0 3.14159265358979 4.61342257496916
2  29 8 0 3.14159265358979 4.61342257496916
2  30 6 0 3.14159265358979 4.61342257496916
0

0101000
-490 0 +483 0 *
Wi

0101100
-489 0 +482 0 -481 0 +480 0 *
Fa
0  1e-07 8 0

0101000
+479 0 *
Ve
1.00010000420456e-07
-316 -70.8000000000003 68
0 0

0101101
*
Ve
1.00010000420456e-07
-316 -70.8000000000003 70
0 0

0101101
*
Ed
 1.00010000420456e-07 1 1 0
1  14 0 0 2
2  31 10 0 0 2
4 G1 9 0 10 0
2  32 9 0 0 2
0

0101000
+477 0 -476 0 *
Ed
 1.00000028421709e-07 1 1 0
1  15 0 0 82.831206207659
2  33 4 0 0 82.831206207659
2  34 9 0 0 82.831206207659
2  35 5 0 0 82.831206207659
0

0101000
-484 0 +477 0 *
Ed
 1e-07 1 1 0
1  16 0 0 82.831206207659
2  36 6 0 0 82.831206207659
2  37 9 0 0 82.831206207659
0

0101000
-483 0 +476 0 *
Wi

0101100
-482 0 +475 0 -474 0 +473 0 *
Fa
0  1e-07 9 0

0101000
+472 0 *
Ve
1.00010042636827e-07
-311 -65.8000000000002 68
0 0

0101101
*
Ve
1.00010042636827e-07
-311 -65.8000000000002 70
0 0

0101101
*
Ed
 1.00010042636827e-07 1 1 0
1  17 0 0 2
2  38 10 0 0 2
4 G1 10 0 11 0
2  39 11 0 0 2
0

0101000
+470 0 -469 0 *
Ed
 1.00000028421709e-07 1 1 0
1  18 0 1.5707963267949 3.14159265358979
2  40 10 0 1.5707963267949 3.14159265358979
2  41 4 0 1.5707963267949 3.14159265358979
2  42 5 0 1.5707963267949 3.14159265358979
0

0101000
-477 0 +470 0 *
Ed
 1e-07 1 1 0
1  19 0 1.5707963267949 3.14159265358979
2  43 10 0 1.5707963267949 3.14159265358979
2  44 6 0 1.5707963267949 3.14159265358979
0

0101000
-476 0 +469 0 *
Wi

0101100
-475 0 +468 0 -467 0 +466 0 *
Fa
0  1e-07 10 0

0101000
+465 0 *
Ve
1.00000028421709e-07
311 -65.8 68
0 0

0101101
*
Ve
1e-07
311 -65.8 70
0 0

0101101
*
Ed
 1e-07 1 1 0
1  20 0 0 2
2  45 12 0 0 2
4 G1 11 0 12 0
2  46 11 0 0 2
0

0101000
+463 0 -462 0 *
Ed
 1.00000028421709e-07 1 1 0
1  21 0 0 622
2  47 4 0 0 622
2  48 11 0 0 622
2  49 5 0 0 622
0

0101000
+470 0 -463 0 *
Ed
 1e-07 1 1 0
1  22 0 0 622
2  50 6 0 0 622
2  51 11 0 0 622
0

0101000
+469 0 -462 0 *
Wi

0101100
+468 0 -461 0 -460 0 +459 0 *
Fa
0  1e-07 11 0

0101000
+458 0 *
Ve
1.00000028421709e-07
316 -70.8 68
0 0

0101101
*
Ve
1e-07
316 -70.8 70
0 0

0101101
*
Ed
 1e-07 1 1 0
1  23 0 0 2
2  52 12 0 0 2
4 G1 12 0 13 0
2  53 13 0 0 2
0

0101000
+456 0 -455 0 *
Ed
 1.00000028421709e-07 1 1 0
1  24 0 0 1.5707963267949
2  54 12 0 0 1.5707963267949
2  55 4 0 0 1.5707963267949
2  56 5 0 0 1.5707963267949
0

0101000
-463 0 +456 0 *
Ed
 1e-07 1 1 0
1  25 0 0 1.5707963267949
2  57 12 0 0 1.5707963267949
2  58 6 0 0 1.5707963267949
0

0101000
-462 0 +455 0 *
Wi

0101100
-461 0 +454 0 -453 0 +452 0 *
Fa
0  1e-07 12 0

0101000
+451 0 *
Ve
1.00010003553069e-07
316 -153.631206207659 68
0 0

0101101
*
Ve
1.00010003553069e-07
316 -153.631206207659 70
0 0

0101101
*
Ed
 1.00010003553069e-07 1 1 0
1  26 0 0 2
2  59 2 0 0 2
4 G1 13 0 2 0
2  60 13 0 0 2
0

0101000
+449 0 -448 0 *
Ed
 1.00000028421709e-07 1 1 0
1  27 0 0 82.8312062076593
2  61 4 0 0 82.8312062076593
2  62 13 0 0 82.8312062076593
2  63 5 0 0 82.8312062076593
0

0101000
+456 0 -449 0 *
Ed
 1e-07 1 1 0
1  28 0 0 82.8312062076593
2  64 6 0 0 82.8312062076593
2  65 13 0 0 82.8312062076593
0

0101000
+455 0 -448 0 *
Wi

0101100
+454 0 -447 0 -446 0 +445 0 *
Fa
0  1e-07 13 0

0101000
+444 0 *
Ed
 1.00000028421709e-07 1 1 0
1  29 0 4.81135538580022 6.28318530717959
2  66 2 0 4.81135538580022 6.28318530717959
2  67 4 0 4.81135538580022 6.28318530717959
2  68 5 0 4.81135538580022 6.28318530717959
0

0101000
-449 0 +508 0 *
Ed
 1e-07 1 1 0
1  30 0 4.81135538580022 6.28318530717959
2  69 2 0 4.81135538580022 6.28318530717959
2  70 6 0 4.81135538580022 6.28318530717959
0

0101000
-448 0 +507 0 *
Wi

0101100
-447 0 +506 0 -442 0 +441 0 *
Fa
0  1e-07 2 0

0101000
+440 0 *
Ve
1e-07
-312.3 -74.1000000000002 68
0 0

0101101
*
Ve
1e-07
-312.3 -74.1000000000002 70
0 0

0101101
*
Ed
 1e-07 1 1 0
1  31 0 0 2
2  71 14 0 0 2
2  72 15 0 0 2
0

0101000
+438 0 -437 0 *
Ve
1e-07
-312.3 -69.5000000000003 68
0 0

0101101
*
Ve
1e-07
-312.3 -69.5000000000003 70
0 0

0101101
*
Ed
 1e-07 1 1 0
1  32 0 0 2
2  73 14 0 0 2
2  74 16 0 0 2
0

0101000
+435 0 -434 0 *
Ed
 1e-07 1 1 0
1  33 0 0 4.59999999999989
2  75 4 0 0 4.59999999999989
2  76 14 0 0 4.59999999999989
0

0101000
-438 0 +435 0 *
Ed
 1e-07 1 1 0
1  34 0 0 4.59999999999989
2  77 6 0 0 4.59999999999989
2  78 14 0 0 4.59999999999989
0

0101000
-437 0 +434 0 *
Wi

0101100
-436 0 +433 0 -432 0 +431 0 *
Fa
0  1e-07 14 0

0101000
+430 0 *
Ve
1e-07
-307.7 -74.1000000000002 68
0 0

0101101
*
Ve
1e-07
-307.7 -74.1000000000002 70
0 0

0101101
*
Ed
 1e-07 1 1 0
1  35 0 0 2
2  79 15 0 0 2
2  80 17 0 0 2
0

0101000
+428 0 -427 0 *
Ed
 1e-07 1 1 0
1  36 0 0 4.59999999999991
2  81 4 0 0 4.59999999999991
2  82 15 0 0 4.59999999999991
0

0101000
-428 0 +438 0 *
Ed
 1e-07 1 1 0
1  37 0 0 4.59999999999991
2  83 6 0 0 4.59999999999991
2  84 15 0 0 4.59999999999991
0

0101000
-427 0 +437 0 *
Wi

0101100
-426 0 +436 0 -425 0 +424 0 *
Fa
0  1e-07 15 0

0101000
+423 0 *
Ve
1e-07
-307.7 -69.5000000000003 68
0 0

0101101
*
Ve
1e-07
-307.7 -69.5000000000003 70
0 0

0101101
*
Ed
 1e-07 1 1 0
1  38 0 0 2
2  85 16 0 0 2
2  86 17 0 0 2
0

0101000
+421 0 -420 0 *
Ed
 1e-07 1 1 0
1  39 0 0 4.59999999999989
2  87 4 0 0 4.59999999999989
2  88 17 0 0 4.59999999999989
0

0101000
+421 0 -428 0 *
Ed
 1e-07 1 1 0
1  40 0 0 4.59999999999989
2  89 6 0 0 4.59999999999989
2  90 17 0 0 4.59999999999989
0

0101000
+420 0 -427 0 *
Wi

0101100
+419 0 -426 0 -418 0 +417 0 *
Fa
0  1e-07 17 0

0101000
+416 0 *
Ed
 1e-07 1 1 0
1  41 0 0 4.59999999999991
2  91 4 0 0 4.59999999999991
2  92 16 0 0 4.59999999999991
0

0101000
+435 0 -421 0 *
Ed
 1e-07 1 1 0
1  42 0 0 4.59999999999991
2  93 6 0 0 4.59999999999991
2  94 16 0 0 4.59999999999991
0

0101000
+434 0 -420 0 *
Wi

0101100
+433 0 -419 0 -414 0 +413 0 *
Fa
0  1e-07 16 0

0101000
+412 0 *
Ve
1e-07
-312.3 -159.1 68
0 0

0101101
*
Ve
1e-07
-312.3 -159.1 70
0 0

0101101
*
Ed
 1e-07 1 1 0
1  43 0 0 2
2  95 18 0 0 2
2  96 19 0 0 2
0

0101000
+410 0 -409 0 *
Ve
1e-07
-312.3 -154.5 68
0 0

0101101
*
Ve
1e-07
-312.3 -154.5 70
0 0

0101101
*
Ed
 1e-07 1 1 0
1  44 0 0 2
2  97 18 0 0 2
2  98 20 0 0 2
0

0101000
+407 0 -406 0 *
Ed
 1e-07 1 1 0
1  45 0 0 4.5999999999999
2  99 4 0 0 4.5999999999999
2  100 18 0 0 4.5999999999999
0

0101000
-410 0 +407 0 *
Ed
 1e-07 1 1 0
1  46 0 0 4.5999999999999
2  101 6 0 0 4.5999999999999
2  102 18 0 0 4.5999999999999
0

0101000
-409 0 +406 0 *
Wi

0101100
-408 0 +405 0 -404 0 +403 0 *
Fa
0  1e-07 18 0

0101000
+402 0 *
Ve
1e-07
-307.7 -159.1 68
0 0

0101101
*
Ve
1e-07
-307.7 -159.1 70
0 0

0101101
*
Ed
 1e-07 1 1 0
1  47 0 0 2
2  103 19 0 0 2
2  104 21 0 0 2
0

0101000
+400 0 -399 0 *
Ed
 1e-07 1 1 0
1  48 0 0 4.59999999999991
2  105 4 0 0 4.59999999999991
2  106 19 0 0 4.59999999999991
0

0101000
-400 0 +410 0 *
Ed
 1e-07 1 1 0
1  49 0 0 4.59999999999991
2  107 6 0 0 4.59999999999991
2  108 19 0 0 4.59999999999991
0

0101000
-399 0 +409 0 *
Wi

0101100
-398 0 +408 0 -397 0 +396 0 *
Fa
0  1e-07 19 0

0101000
+395 0 *
Ve
1e-07
-307.7 -154.5 68
0 0

0101101
*
Ve
1e-07
-307.7 -154.5 70
0 0

0101101
*
Ed
 1e-07 1 1 0
1  50 0 0 2
2  109 21 0 0 2
2  110 20 0 0 2
0

0101000
+393 0 -392 0 *
Ed
 1e-07 1 1 0
1  51 0 0 4.5999999999999
2  111 4 0 0 4.5999999999999
2  112 21 0 0 4.5999999999999
0

0101000
+393 0 -400 0 *
Ed
 1e-07 1 1 0
1  52 0 0 4.5999999999999
2  113 6 0 0 4.5999999999999
2  114 21 0 0 4.5999999999999
0

0101000
+392 0 -399 0 *
Wi

0101100
+391 0 -398 0 -390 0 +389 0 *
Fa
0  1e-07 21 0

0101000
+388 0 *
Ed
 1e-07 1 1 0
1  53 0 0 4.59999999999991
2  115 4 0 0 4.59999999999991
2  116 20 0 0 4.59999999999991
0

0101000
+407 0 -393 0 *
Ed
 1e-07 1 1 0
1  54 0 0 4.59999999999991
2  117 6 0 0 4.59999999999991
2  118 20 0 0 4.59999999999991
0

0101000
+406 0 -392 0 *
Wi

0101100
+405 0 -391 0 -386 0 +385 0 *
Fa
0  1e-07 20 0

0101000
+384 0 *
Ve
1e-07
-2.30000000000007 -190.8 68
0 0

0101101
*
Ve
1e-07
-2.30000000000007 -190.8 70
0 0

0101101
*
Ed
 1e-07 1 1 0
1  55 0 0 2
2  119 22 0 0 2
2  120 23 0 0 2
0

0101000
+382 0 -381 0 *
Ve
1e-07
-2.30000000000007 -186.2 68
0 0

0101101
*
Ve
1e-07
-2.30000000000007 -186.2 70
0 0

0101101
*
Ed
 1e-07 1 1 0
1  56 0 0 2
2  121 22 0 0 2
2  122 24 0 0 2
0

0101000
+379 0 -378 0 *
Ed
 1e-07 1 1 0
1  57 0 0 4.59999999999991
2  123 4 0 0 4.59999999999991
2  124 22 0 0 4.59999999999991
0

0101000
-382 0 +379 0 *
Ed
 1e-07 1 1 0
1  58 0 0 4.59999999999991
2  125 6 0 0 4.59999999999991
2  126 22 0 0 4.59999999999991
0

0101000
-381 0 +378 0 *
Wi

0101100
-380 0 +377 0 -376 0 +375 0 *
Fa
0  1e-07 22 0

0101000
+374 0 *
Ve
1e-07
2.30000000000024 -190.8 68
0 0

0101101
*
Ve
1e-07
2.30000000000024 -190.8 70
0 0

0101101
*
Ed
 1e-07 1 1 0
1  59 0 0 2
2  127 25 0 0 2
2  128 23 0 0 2
0

0101000
+372 0 -371 0 *
Ed
 1e-07 1 1 0
1  60 0 0 4.60000000000031
2  129 4 0 0 4.60000000000031
2  130 23 0 0 4.60000000000031
0

0101000
-372 0 +382 0 *
Ed
 1e-07 1 1 0
1  61 0 0 4.60000000000031
2  131 6 0 0 4.60000000000031
2  132 23 0 0 4.60000000000031
0

0101000
-371 0 +381 0 *
Wi

0101100
-370 0 +380 0 -369 0 +368 0 *
Fa
0  1e-07 23 0

0101000
+367 0 *
Ve
1e-07
2.30000000000024 -186.2 68
0 0

0101101
*
Ve
1e-07
2.30000000000024 -186.2 70
0 0

0101101
*
Ed
 1e-07 1 1 0
1  62 0 0 2
2  133 25 0 0 2
2  134 24 0 0 2
0

0101000
+365 0 -364 0 *
Ed
 1e-07 1 1 0
1  63 0 0 4.59999999999991
2  135 4 0 0 4.59999999999991
2  136 25 0 0 4.59999999999991
0

0101000
+365 0 -372 0 *
Ed
 1e-07 1 1 0
1  64 0 0 4.59999999999991
2  137 6 0 0 4.59999999999991
2  138 25 0 0 4.59999999999991
0

0101000
+364 0 -371 0 *
Wi

0101100
+363 0 -370 0 -362 0 +361 0 *
Fa
0  1e-07 25 0

0101000
+360 0 *
Ed
 1e-07 1 1 0
1  65 0 0 4.60000000000031
2  139 4 0 0 4.60000000000031
2  140 24 0 0 4.60000000000031
0

0101000
+379 0 -365 0 *
Ed
 1e-07 1 1 0
1  66 0 0 4.60000000000031
2  141 6 0 0 4.60000000000031
2  142 24 0 0 4.60000000000031
0

0101000
+378 0 -364 0 *
Wi

0101100
+377 0 -363 0 -358 0 +357 0 *
Fa
0  1e-07 24 0

0101000
+356 0 *
Ve
1e-07
-2.30000000000007 -74.1000000000002 68
0 0

0101101
*
Ve
1e-07
-2.30000000000007 -74.1000000000002 70
0 0

0101101
*
Ed
 1e-07 1 1 0
1  67 0 0 2
2  143 26 0 0 2
2  144 27 0 0 2
0

0101000
+354 0 -353 0 *
Ve
1e-07
-2.30000000000007 -69.5000000000003 68
0 0

0101101
*
Ve
1e-07
-2.30000000000007 -69.5000000000003 70
0 0

0101101
*
Ed
 1e-07 1 1 0
1  68 0 0 2
2  145 26 0 0 2
2  146 28 0 0 2
0

0101000
+351 0 -350 0 *
Ed
 1e-07 1 1 0
1  69 0 0 4.59999999999989
2  147 4 0 0 4.59999999999989
2  148 26 0 0 4.59999999999989
0

0101000
-354 0 +351 0 *
Ed
 1e-07 1 1 0
1  70 0 0 4.59999999999989
2  149 6 0 0 4.59999999999989
2  150 26 0 0 4.59999999999989
0

0101000
-353 0 +350 0 *
Wi

0101100
-352 0 +349 0 -348 0 +347 0 *
Fa
0  1e-07 26 0

0101000
+346 0 *
Ve
1e-07
2.30000000000024 -74.1000000000002 68
0 0

0101101
*
Ve
1e-07
2.30000000000024 -74.1000000000002 70
0 0

0101101
*
Ed
 1e-07 1 1 0
1  71 0 0 2
2  151 27 0 0 2
2  152 29 0 0 2
0

0101000
+344 0 -343 0 *
Ed
 1e-07 1 1 0
1  72 0 0 4.60000000000031
2  153 4 0 0 4.60000000000031
2  154 27 0 0 4.60000000000031
0

0101000
-344 0 +354 0 *
Ed
 1e-07 1 1 0
1  73 0 0 4.60000000000031
2  155 6 0 0 4.60000000000031
2  156 27 0 0 4.60000000000031
0

0101000
-343 0 +353 0 *
Wi

0101100
-342 0 +352 0 -341 0 +340 0 *
Fa
0  1e-07 27 0

0101000
+339 0 *
Ve
1e-07
2.30000000000024 -69.5000000000003 68
0 0

0101101
*
Ve
1e-07
2.30000000000024 -69.5000000000003 70
0 0

0101101
*
Ed
 1e-07 1 1 0
1  74 0 0 2
2  157 29 0 0 2
2  158 28 0 0 2
0

0101000
+337 0 -336 0 *
Ed
 1e-07 1 1 0
1  75 0 0 4.59999999999989
2  159 4 0 0 4.59999999999989
2  160 29 0 0 4.59999999999989
0

0101000
+337 0 -344 0 *
Ed
 1e-07 1 1 0
1  76 0 0 4.59999999999989
2  161 6 0 0 4.59999999999989
2  162 29 0 0 4.59999999999989
0

0101000
+336 0 -343 0 *
Wi

0101100
+335 0 -342 0 -334 0 +333 0 *
Fa
0  1e-07 29 0

0101000
+332 0 *
Ed
 1e-07 1 1 0
1  77 0 0 4.60000000000031
2  163 4 0 0 4.60000000000031
2  164 28 0 0 4.60000000000031
0

0101000
+351 0 -337 0 *
Ed
 1e-07 1 1 0
1  78 0 0 4.60000000000031
2  165 6 0 0 4.60000000000031
2  166 28 0 0 4.60000000000031
0

0101000
+350 0 -336 0 *
Wi

0101100
+349 0 -335 0 -330 0 +329 0 *
Fa
0  1e-07 28 0

0101000
+328 0 *
Ve
1e-07
312.3 -69.5000000000003 68
0 0

0101101
*
Ve
1e-07
312.3 -69.5000000000003 70
0 0

0101101
*
Ed
 1e-07 1 1 0
1  79 0 0 2
2  167 30 0 0 2
2  168 31 0 0 2
0

0101000
+326 0 -325 0 *
Ve
1e-07
307.7 -69.5000000000003 68
0 0

0101101
*
Ve
1e-07
307.7 -69.5000000000003 70
0 0

0101101
*
Ed
 1e-07 1 1 0
1  80 0 0 2
2  169 30 0 0 2
2  170 32 0 0 2
0

0101000
+323 0 -322 0 *
Ed
 1e-07 1 1 0
1  81 0 0 4.60000000000048
2  171 4 0 0 4.60000000000048
2  172 30 0 0 4.60000000000048
0

0101000
+326 0 -323 0 *
Ed
 1e-07 1 1 0
1  82 0 0 4.60000000000048
2  173 6 0 0 4.60000000000048
2  174 30 0 0 4.60000000000048
0

0101000
+325 0 -322 0 *
Wi

0101100
+324 0 -321 0 -320 0 +319 0 *
Fa
0  1e-07 30 0

0101000
+318 0 *
Ve
1e-07
307.7 -74.1000000000002 68
0 0

0101101
*
Ve
1e-07
307.7 -74.1000000000002 70
0 0

0101101
*
Ed
 1e-07 1 1 0
1  83 0 0 2
2  175 32 0 0 2
2  176 33 0 0 2
0

0101000
+316 0 -315 0 *
Ed
 1e-07 1 1 0
1  84 0 0 4.59999999999989
2  177 4 0 0 4.59999999999989
2  178 32 0 0 4.59999999999989
0

0101000
+323 0 -316 0 *
Ed
 1e-07 1 1 0
1  85 0 0 4.59999999999989
2  179 6 0 0 4.59999999999989
2  180 32 0 0 4.59999999999989
0

0101000
+322 0 -315 0 *
Wi

0101100
+321 0 -314 0 -313 0 +312 0 *
Fa
0  1e-07 32 0

0101000
+311 0 *
Ve
1e-07
312.3 -74.1000000000002 68
0 0

0101101
*
Ve
1e-07
312.3 -74.1000000000002 70
0 0

0101101
*
Ed
 1e-07 1 1 0
1  86 0 0 2
2  181 31 0 0 2
2  182 33 0 0 2
0

0101000
+309 0 -308 0 *
Ed
 1e-07 1 1 0
1  87 0 0 4.60000000000048
2  183 4 0 0 4.60000000000048
2  184 33 0 0 4.60000000000048
0

0101000
-316 0 +309 0 *
Ed
 1e-07 1 1 0
1  88 0 0 4.60000000000048
2  185 6 0 0 4.60000000000048
2  186 33 0 0 4.60000000000048
0

0101000
-315 0 +308 0 *
Wi

0101100
-314 0 +307 0 -306 0 +305 0 *
Fa
0  1e-07 33 0

0101000
+304 0 *
Ed
 1e-07 1 1 0
1  89 0 0 4.59999999999989
2  187 4 0 0 4.59999999999989
2  188 31 0 0 4.59999999999989
0

0101000
-309 0 +326 0 *
Ed
 1e-07 1 1 0
1  90 0 0 4.59999999999989
2  189 6 0 0 4.59999999999989
2  190 31 0 0 4.59999999999989
0

0101000
-308 0 +325 0 *
Wi

0101100
-307 0 +324 0 -302 0 +301 0 *
Fa
0  1e-07 31 0

0101000
+300 0 *
Ve
1e-07
312.3 -154.5 68
0 0

0101101
*
Ve
1e-07
312.3 -154.5 70
0 0

0101101
*
Ed
 1e-07 1 1 0
1  91 0 0 2
2  191 34 0 0 2
2  192 35 0 0 2
0

0101000
+298 0 -297 0 *
Ve
1e-07
307.7 -154.5 68
0 0

0101101
*
Ve
1e-07
307.7 -154.5 70
0 0

0101101
*
Ed
 1e-07 1 1 0
1  92 0 0 2
2  193 34 0 0 2
2  194 36 0 0 2
0

0101000
+295 0 -294 0 *
Ed
 1e-07 1 1 0
1  93 0 0 4.60000000000048
2  195 4 0 0 4.60000000000048
2  196 34 0 0 4.60000000000048
0

0101000
+298 0 -295 0 *
Ed
 1e-07 1 1 0
1  94 0 0 4.60000000000048
2  197 6 0 0 4.60000000000048
2  198 34 0 0 4.60000000000048
0

0101000
+297 0 -294 0 *
Wi

0101100
+296 0 -293 0 -292 0 +291 0 *
Fa
0  1e-07 34 0

0101000
+290 0 *
Ve
1e-07
307.7 -159.1 68
0 0

0101101
*
Ve
1e-07
307.7 -159.1 70
0 0

0101101
*
Ed
 1e-07 1 1 0
1  95 0 0 2
2  199 36 0 0 2
2  200 37 0 0 2
0

0101000
+288 0 -287 0 *
Ed
 1e-07 1 1 0
1  96 0 0 4.5999999999999
2  201 4 0 0 4.5999999999999
2  202 36 0 0 4.5999999999999
0

0101000
+295 0 -288 0 *
Ed
 1e-07 1 1 0
1  97 0 0 4.5999999999999
2  203 6 0 0 4.5999999999999
2  204 36 0 0 4.5999999999999
0

0101000
+294 0 -287 0 *
Wi

0101100
+293 0 -286 0 -285 0 +284 0 *
Fa
0  1e-07 36 0

0101000
+283 0 *
Ve
1e-07
312.3 -159.1 68
0 0

0101101
*
Ve
1e-07
312.3 -159.1 70
0 0

0101101
*
Ed
 1e-07 1 1 0
1  98 0 0 2
2  205 37 0 0 2
2  206 35 0 0 2
0

0101000
+281 0 -280 0 *
Ed
 1e-07 1 1 0
1  99 0 0 4.60000000000048
2  207 4 0 0 4.60000000000048
2  208 37 0 0 4.60000000000048
0

0101000
-288 0 +281 0 *
Ed
 1e-07 1 1 0
1  100 0 0 4.60000000000048
2  209 6 0 0 4.60000000000048
2  210 37 0 0 4.60000000000048
0

0101000
-287 0 +280 0 *
Wi

0101100
-286 0 +279 0 -278 0 +277 0 *
Fa
0  1e-07 37 0

0101000
+276 0 *
Ed
 1e-07 1 1 0
1  101 0 0 4.5999999999999
2  211 4 0 0 4.5999999999999
2  212 35 0 0 4.5999999999999
0

0101000
-281 0 +298 0 *
Ed
 1e-07 1 1 0
1  102 0 0 4.5999999999999
2  213 6 0 0 4.5999999999999
2  214 35 0 0 4.5999999999999
0

0101000
-280 0 +297 0 *
Wi

0101100
-279 0 +296 0 -274 0 +273 0 *
Fa
0  1e-07 35 0

0101000
+272 0 *
Ve
1e-07
29.0000000000001 -121.8 68
0 0

0101101
*
Ve
1e-07
29.0000000000001 -121.8 70
0 0

0101101
*
Ed
 1e-07 1 1 0
1  103 0 0 2
3  215 216CN 38 0 0 2
0

0101000
+270 0 -269 0 *
Ed
 1e-07 1 1 0
1  104 0 0 6.28318530717959
2  217 38 0 0 6.28318530717959
2  218 4 0 0 6.28318530717959
0

0101000
+270 0 -270 0 *
Ed
 1e-07 1 1 0
1  105 0 0 6.28318530717959
2  219 38 0 0 6.28318530717959
2  220 6 0 0 6.28318530717959
0

0101000
+269 0 -269 0 *
Wi

0101100
+268 0 -268 0 -267 0 +266 0 *
Fa
0  1e-07 38 0

0101000
+265 0 *
Ve
1e-07
-4.99999999999983 -121.8 68
0 0

0101101
*
Ve
1e-07
-4.99999999999983 -121.8 70
0 0

0101101
*
Ed
 1e-07 1 1 0
1  106 0 0 2
3  221 222CN 39 0 0 2
0

0101000
+263 0 -262 0 *
Ed
 1e-07 1 1 0
1  107 0 0 6.28318530717959
2  223 39 0 0 6.28318530717959
2  224 4 0 0 6.28318530717959
0

0101000
+263 0 -263 0 *
Ed
 1e-07 1 1 0
1  108 0 0 6.28318530717959
2  225 39 0 0 6.28318530717959
2  226 6 0 0 6.28318530717959
0

0101000
+262 0 -262 0 *
Wi

0101100
+261 0 -261 0 -260 0 +259 0 *
Fa
0  1e-07 39 0

0101000
+258 0 *
Ve
1e-07
-233.412 -126.956 68
0 0

0101101
*
Ve
1e-07
-233.412 -126.956 70
0 0

0101101
*
Ed
 1e-07 1 1 0
1  109 0 0 2
3  227 228CN 40 0 0 2
0

0101000
+256 0 -255 0 *
Ed
 1e-07 1 1 0
1  110 0 0 6.28318530717959
2  229 40 0 0 6.28318530717959
2  230 4 0 0 6.28318530717959
0

0101000
+256 0 -256 0 *
Ed
 1e-07 1 1 0
1  111 0 0 6.28318530717959
2  231 40 0 0 6.28318530717959
2  232 6 0 0 6.28318530717959
0

0101000
+255 0 -255 0 *
Wi

0101100
+254 0 -254 0 -253 0 +252 0 *
Fa
0  1e-07 40 0

0101000
+251 0 *
Ve
1e-07
125.977 -126.956 68
0 0

0101101
*
Ve
1e-07
125.977 -126.956 70
0 0

0101101
*
Ed
 1e-07 1 1 0
1  112 0 0 2
3  233 234CN 41 0 0 2
0

0101000
+249 0 -248 0 *
Ed
 1e-07 1 1 0
1  113 0 0 6.28318530717959
2  235 41 0 0 6.28318530717959
2  236 4 0 0 6.28318530717959
0

0101000
+249 0 -249 0 *
Ed
 1e-07 1 1 0
1  114 0 0 6.28318530717959
2  237 41 0 0 6.28318530717959
2  238 6 0 0 6.28318530717959
0

0101000
+248 0 -248 0 *
Wi

0101100
+247 0 -247 0 -246 0 +245 0 *
Fa
0  1e-07 41 0

0101000
+244 0 *
Ve
1e-07
-171.412 -140.956 68
0 0

0101101
*
Ve
1e-07
-171.412 -140.956 70
0 0

0101101
*
Ed
 1e-07 1 1 0
1  115 0 0 2
3  239 240CN 42 0 0 2
0

0101000
+242 0 -241 0 *
Ed
 1e-07 1 1 0
1  116 0 0 6.28318530717959
2  241 42 0 0 6.28318530717959
2  242 4 0 0 6.28318530717959
0

0101000
+242 0 -242 0 *
Ed
 1e-07 1 1 0
1  117 0 0 6.28318530717959
2  243 42 0 0 6.28318530717959
2  244 6 0 0 6.28318530717959
0

0101000
+241 0 -241 0 *
Wi

0101100
+240 0 -240 0 -239 0 +238 0 *
Fa
0  1e-07 42 0

0101000
+237 0 *
Ve
1e-07
-164.412 -102.456 68
0 0

0101101
*
Ve
1e-07
-164.412 -102.456 70
0 0

0101101
*
Ed
 1e-07 1 1 0
1  118 0 0 2
3  245 246CN 43 0 0 2
0

0101000
+235 0 -234 0 *
Ed
 1e-07 1 1 0
1  119 0 0 6.28318530717959
2  247 43 0 0 6.28318530717959
2  248 4 0 0 6.28318530717959
0

0101000
+235 0 -235 0 *
Ed
 1e-07 1 1 0
1  120 0 0 6.28318530717959
2  249 43 0 0 6.28318530717959
2  250 6 0 0 6.28318530717959
0

0101000
+234 0 -234 0 *
Wi

0101100
+233 0 -233 0 -232 0 +231 0 *
Fa
0  1e-07 43 0

0101000
+230 0 *
Ve
1e-07
-138.412 -126.956 68
0 0

0101101
*
Ve
1e-07
-138.412 -126.956 70
0 0

0101101
*
Ed
 1e-07 1 1 0
1  121 0 0 2
3  251 252CN 44 0 0 2
0

0101000
+228 0 -227 0 *
Ed
 1e-07 1 1 0
1  122 0 0 6.28318530717959
2  253 44 0 0 6.28318530717959
2  254 4 0 0 6.28318530717959
0

0101000
+228 0 -228 0 *
Ed
 1e-07 1 1 0
1  123 0 0 6.28318530717959
2  255 44 0 0 6.28318530717959
2  256 6 0 0 6.28318530717959
0

0101000
+227 0 -227 0 *
Wi

0101100
+226 0 -226 0 -225 0 +224 0 *
Fa
0  1e-07 44 0

0101000
+223 0 *
Ve
1e-07
-131.412 -88.456 68
0 0

0101101
*
Ve
1e-07
-131.412 -88.456 70
0 0

0101101
*
Ed
 1e-07 1 1 0
1  124 0 0 2
3  257 258CN 45 0 0 2
0

0101000
+221 0 -220 0 *
Ed
 1e-07 1 1 0
1  125 0 0 6.28318530717959
2  259 45 0 0 6.28318530717959
2  260 4 0 0 6.28318530717959
0

0101000
+221 0 -221 0 *
Ed
 1e-07 1 1 0
1  126 0 0 6.28318530717959
2  261 45 0 0 6.28318530717959
2  262 6 0 0 6.28318530717959
0

0101000
+220 0 -220 0 *
Wi

0101100
+219 0 -219 0 -218 0 +217 0 *
Fa
0  1e-07 45 0

0101000
+216 0 *
Ve
1e-07
-102.412 -132.956 68
0 0

0101101
*
Ve
1e-07
-102.412 -132.956 70
0 0

0101101
*
Ed
 1e-07 1 1 0
1  127 0 0 2
3  263 264CN 46 0 0 2
0

0101000
+214 0 -213 0 *
Ed
 1e-07 1 1 0
1  128 0 0 6.28318530717959
2  265 46 0 0 6.28318530717959
2  266 4 0 0 6.28318530717959
0

0101000
+214 0 -214 0 *
Ed
 1e-07 1 1 0
1  129 0 0 6.28318530717959
2  267 46 0 0 6.28318530717959
2  268 6 0 0 6.28318530717959
0

0101000
+213 0 -213 0 *
Wi

0101100
+212 0 -212 0 -211 0 +210 0 *
Fa
0  1e-07 46 0

0101000
+209 0 *
Ve
1e-07
-95.9120000000003 -94.456 68
0 0

0101101
*
Ve
1e-07
-95.9120000000003 -94.456 70
0 0

0101101
*
Ed
 1e-07 1 1 0
1  130 0 0 2
3  269 270CN 47 0 0 2
0

0101000
+207 0 -206 0 *
Ed
 1e-07 1 1 0
1  131 0 0 6.28318530717959
2  271 47 0 0 6.28318530717959
2  272 4 0 0 6.28318530717959
0

0101000
+207 0 -207 0 *
Ed
 1e-07 1 1 0
1  132 0 0 6.28318530717959
2  273 47 0 0 6.28318530717959
2  274 6 0 0 6.28318530717959
0

0101000
+206 0 -206 0 *
Wi

0101100
+205 0 -205 0 -204 0 +203 0 *
Fa
0  1e-07 47 0

0101000
+202 0 *
Ve
1e-07
-68.4120000000003 -147.956 68
0 0

0101101
*
Ve
1e-07
-68.4120000000003 -147.956 70
0 0

0101101
*
Ed
 1e-07 1 1 0
1  133 0 0 2
3  275 276CN 48 0 0 2
0

0101000
+200 0 -199 0 *
Ed
 1e-07 1 1 0
1  134 0 0 6.28318530717959
2  277 48 0 0 6.28318530717959
2  278 4 0 0 6.28318530717959
0

0101000
+200 0 -200 0 *
Ed
 1e-07 1 1 0
1  135 0 0 6.28318530717959
2  279 48 0 0 6.28318530717959
2  280 6 0 0 6.28318530717959
0

0101000
+199 0 -199 0 *
Wi

0101100
+198 0 -198 0 -197 0 +196 0 *
Fa
0  1e-07 48 0

0101000
+195 0 *
Ve
1e-07
-61.9120000000003 -109.456 68
0 0

0101101
*
Ve
1e-07
-61.9120000000003 -109.456 70
0 0

0101101
*
Ed
 1e-07 1 1 0
1  136 0 0 2
3  281 282CN 49 0 0 2
0

0101000
+193 0 -192 0 *
Ed
 1e-07 1 1 0
1  137 0 0 6.28318530717959
2  283 49 0 0 6.28318530717959
2  284 4 0 0 6.28318530717959
0

0101000
+193 0 -193 0 *
Ed
 1e-07 1 1 0
1  138 0 0 6.28318530717959
2  285 49 0 0 6.28318530717959
2  286 6 0 0 6.28318530717959
0

0101000
+192 0 -192 0 *
Wi

0101100
+191 0 -191 0 -190 0 +189 0 *
Fa
0  1e-07 49 0

0101000
+188 0 *
Ve
1e-07
-268.162 -90.456 68
0 0

0101101
*
Ve
1e-07
-268.162 -90.456 70
0 0

0101101
*
Ed
 1e-07 1 1 0
1  139 0 0 2
3  287 288CN 50 0 0 2
0

0101000
+186 0 -185 0 *
Ed
 1e-07 1 1 0
1  140 0 0 6.28318530717959
2  289 50 0 0 6.28318530717959
2  290 4 0 0 6.28318530717959
0

0101000
+186 0 -186 0 *
Ed
 1e-07 1 1 0
1  141 0 0 6.28318530717959
2  291 50 0 0 6.28318530717959
2  292 6 0 0 6.28318530717959
0

0101000
+185 0 -185 0 *
Wi

0101100
+184 0 -184 0 -183 0 +182 0 *
Fa
0  1e-07 50 0

0101000
+181 0 *
Ve
1e-07
-218.162 -90.456 68
0 0

0101101
*
Ve
1e-07
-218.162 -90.456 70
0 0

0101101
*
Ed
 1e-07 1 1 0
1  142 0 0 2
3  293 294CN 51 0 0 2
0

0101000
+179 0 -178 0 *
Ed
 1e-07 1 1 0
1  143 0 0 6.28318530717959
2  295 51 0 0 6.28318530717959
2  296 4 0 0 6.28318530717959
0

0101000
+179 0 -179 0 *
Ed
 1e-07 1 1 0
1  144 0 0 6.28318530717959
2  297 51 0 0 6.28318530717959
2  298 6 0 0 6.28318530717959
0

0101000
+178 0 -178 0 *
Wi

0101100
+177 0 -177 0 -176 0 +175 0 *
Fa
0  1e-07 51 0

0101000
+174 0 *
Ve
1e-07
-268.162 -163.456 68
0 0

0101101
*
Ve
1e-07
-268.162 -163.456 70
0 0

0101101
*
Ed
 1e-07 1 1 0
1  145 0 0 2
3  299 300CN 52 0 0 2
0

0101000
+172 0 -171 0 *
Ed
 1e-07 1 1 0
1  146 0 0 6.28318530717959
2  301 52 0 0 6.28318530717959
2  302 4 0 0 6.28318530717959
0

0101000
+172 0 -172 0 *
Ed
 1e-07 1 1 0
1  147 0 0 6.28318530717959
2  303 52 0 0 6.28318530717959
2  304 6 0 0 6.28318530717959
0

0101000
+171 0 -171 0 *
Wi

0101100
+170 0 -170 0 -169 0 +168 0 *
Fa
0  1e-07 52 0

0101000
+167 0 *
Ve
1e-07
-218.162 -163.456 68
0 0

0101101
*
Ve
1e-07
-218.162 -163.456 70
0 0

0101101
*
Ed
 1e-07 1 1 0
1  148 0 0 2
3  305 306CN 53 0 0 2
0

0101000
+165 0 -164 0 *
Ed
 1e-07 1 1 0
1  149 0 0 6.28318530717959
2  307 53 0 0 6.28318530717959
2  308 4 0 0 6.28318530717959
0

0101000
+165 0 -165 0 *
Ed
 1e-07 1 1 0
1  150 0 0 6.28318530717959
2  309 53 0 0 6.28318530717959
2  310 6 0 0 6.28318530717959
0

0101000
+164 0 -164 0 *
Wi

0101100
+163 0 -163 0 -162 0 +161 0 *
Fa
0  1e-07 53 0

0101000
+160 0 *
Ve
1e-07
191.977 -107.956 68
0 0

0101101
*
Ve
1e-07
191.977 -107.956 70
0 0

0101101
*
Ed
 1e-07 1 1 0
1  151 0 0 2
3  311 312CN 54 0 0 2
0

0101000
+158 0 -157 0 *
Ed
 1e-07 1 1 0
1  152 0 0 6.28318530717959
2  313 54 0 0 6.28318530717959
2  314 4 0 0 6.28318530717959
0

0101000
+158 0 -158 0 *
Ed
 1e-07 1 1 0
1  153 0 0 6.28318530717959
2  315 54 0 0 6.28318530717959
2  316 6 0 0 6.28318530717959
0

0101000
+157 0 -157 0 *
Wi

0101100
+156 0 -156 0 -155 0 +154 0 *
Fa
0  1e-07 54 0

0101000
+153 0 *
Ve
1e-07
191.977 -146.956 68
0 0

0101101
*
Ve
1e-07
191.977 -146.956 70
0 0

0101101
*
Ed
 1e-07 1 1 0
1  154 0 0 2
3  317 318CN 55 0 0 2
0

0101000
+151 0 -150 0 *
Ed
 1e-07 1 1 0
1  155 0 0 6.28318530717959
2  319 55 0 0 6.28318530717959
2  320 4 0 0 6.28318530717959
0

0101000
+151 0 -151 0 *
Ed
 1e-07 1 1 0
1  156 0 0 6.28318530717959
2  321 55 0 0 6.28318530717959
2  322 6 0 0 6.28318530717959
0

0101000
+150 0 -150 0 *
Wi

0101100
+149 0 -149 0 -148 0 +147 0 *
Fa
0  1e-07 55 0

0101000
+146 0 *
Ve
1e-07
222.477 -126.956 68
0 0

0101101
*
Ve
1e-07
222.477 -126.956 70
0 0

0101101
*
Ed
 1e-07 1 1 0
1  157 0 0 2
3  323 324CN 56 0 0 2
0

0101000
+144 0 -143 0 *
Ed
 1e-07 1 1 0
1  158 0 0 6.28318530717959
2  325 56 0 0 6.28318530717959
2  326 4 0 0 6.28318530717959
0

0101000
+144 0 -144 0 *
Ed
 1e-07 1 1 0
1  159 0 0 6.28318530717959
2  327 56 0 0 6.28318530717959
2  328 6 0 0 6.28318530717959
0

0101000
+143 0 -143 0 *
Wi

0101100
+142 0 -142 0 -141 0 +140 0 *
Fa
0  1e-07 56 0

0101000
+139 0 *
Ve
1e-07
222.477 -87.956 68
0 0

0101101
*
Ve
1e-07
222.477 -87.956 70
0 0

0101101
*
Ed
 1e-07 1 1 0
1  160 0 0 2
3  329 330CN 57 0 0 2
0

0101000
+137 0 -136 0 *
Ed
 1e-07 1 1 0
1  161 0 0 6.28318530717959
2  331 57 0 0 6.28318530717959
2  332 4 0 0 6.28318530717959
0

0101000
+137 0 -137 0 *
Ed
 1e-07 1 1 0
1  162 0 0 6.28318530717959
2  333 57 0 0 6.28318530717959
2  334 6 0 0 6.28318530717959
0

0101000
+136 0 -136 0 *
Wi

0101100
+135 0 -135 0 -134 0 +133 0 *
Fa
0  1e-07 57 0

0101000
+132 0 *
Ve
1e-07
258.477 -87.956 68
0 0

0101101
*
Ve
1e-07
258.477 -87.956 70
0 0

0101101
*
Ed
 1e-07 1 1 0
1  163 0 0 2
3  335 336CN 58 0 0 2
0

0101000
+130 0 -129 0 *
Ed
 1e-07 1 1 0
1  164 0 0 6.28318530717959
2  337 58 0 0 6.28318530717959
2  338 4 0 0 6.28318530717959
0

0101000
+130 0 -130 0 *
Ed
 1e-07 1 1 0
1  165 0 0 6.28318530717959
2  339 58 0 0 6.28318530717959
2  340 6 0 0 6.28318530717959
0

0101000
+129 0 -129 0 *
Wi

0101100
+128 0 -128 0 -127 0 +126 0 *
Fa
0  1e-07 58 0

0101000
+125 0 *
Ve
1e-07
258.477 -126.956 68
0 0

0101101
*
Ve
1e-07
258.477 -126.956 70
0 0

0101101
*
Ed
 1e-07 1 1 0
1  166 0 0 2
3  341 342CN 59 0 0 2
0

0101000
+123 0 -122 0 *
Ed
 1e-07 1 1 0
1  167 0 0 6.28318530717959
2  343 59 0 0 6.28318530717959
2  344 4 0 0 6.28318530717959
0

0101000
+123 0 -123 0 *
Ed
 1e-07 1 1 0
1  168 0 0 6.28318530717959
2  345 59 0 0 6.28318530717959
2  346 6 0 0 6.28318530717959
0

0101000
+122 0 -122 0 *
Wi

0101100
+121 0 -121 0 -120 0 +119 0 *
Fa
0  1e-07 59 0

0101000
+118 0 *
Ve
1e-07
293.977 -96.956 68
0 0

0101101
*
Ve
1e-07
293.977 -96.956 70
0 0

0101101
*
Ed
 1e-07 1 1 0
1  169 0 0 2
3  347 348CN 60 0 0 2
0

0101000
+116 0 -115 0 *
Ed
 1e-07 1 1 0
1  170 0 0 6.28318530717959
2  349 60 0 0 6.28318530717959
2  350 4 0 0 6.28318530717959
0

0101000
+116 0 -116 0 *
Ed
 1e-07 1 1 0
1  171 0 0 6.28318530717959
2  351 60 0 0 6.28318530717959
2  352 6 0 0 6.28318530717959
0

0101000
+115 0 -115 0 *
Wi

0101100
+114 0 -114 0 -113 0 +112 0 *
Fa
0  1e-07 60 0

0101000
+111 0 *
Ve
1e-07
293.977 -135.956 68
0 0

0101101
*
Ve
1e-07
293.977 -135.956 70
0 0

0101101
*
Ed
 1e-07 1 1 0
1  172 0 0 2
3  353 354CN 61 0 0 2
0

0101000
+109 0 -108 0 *
Ed
 1e-07 1 1 0
1  173 0 0 6.28318530717959
2  355 61 0 0 6.28318530717959
2  356 4 0 0 6.28318530717959
0

0101000
+109 0 -109 0 *
Ed
 1e-07 1 1 0
1  174 0 0 6.28318530717959
2  357 61 0 0 6.28318530717959
2  358 6 0 0 6.28318530717959
0

0101000
+108 0 -108 0 *
Wi

0101100
+107 0 -107 0 -106 0 +105 0 *
Fa
0  1e-07 61 0

0101000
+104 0 *
Ve
1e-07
91.2269999999996 -90.456 68
0 0

0101101
*
Ve
1e-07
91.2269999999996 -90.456 70
0 0

0101101
*
Ed
 1e-07 1 1 0
1  175 0 0 2
3  359 360CN 62 0 0 2
0

0101000
+102 0 -101 0 *
Ed
 1e-07 1 1 0
1  176 0 0 6.28318530717959
2  361 62 0 0 6.28318530717959
2  362 4 0 0 6.28318530717959
0

0101000
+102 0 -102 0 *
Ed
 1e-07 1 1 0
1  177 0 0 6.28318530717959
2  363 62 0 0 6.28318530717959
2  364 6 0 0 6.28318530717959
0

0101000
+101 0 -101 0 *
Wi

0101100
+100 0 -100 0 -99 0 +98 0 *
Fa
0  1e-07 62 0

0101000
+97 0 *
Ve
1e-07
141.227 -90.456 68
0 0

0101101
*
Ve
1e-07
141.227 -90.456 70
0 0

0101101
*
Ed
 1e-07 1 1 0
1  178 0 0 2
3  365 366CN 63 0 0 2
0

0101000
+95 0 -94 0 *
Ed
 1e-07 1 1 0
1  179 0 0 6.28318530717959
2  367 63 0 0 6.28318530717959
2  368 4 0 0 6.28318530717959
0

0101000
+95 0 -95 0 *
Ed
 1e-07 1 1 0
1  180 0 0 6.28318530717959
2  369 63 0 0 6.28318530717959
2  370 6 0 0 6.28318530717959
0

0101000
+94 0 -94 0 *
Wi

0101100
+93 0 -93 0 -92 0 +91 0 *
Fa
0  1e-07 63 0

0101000
+90 0 *
Ve
1e-07
91.2269999999996 -163.456 68
0 0

0101101
*
Ve
1e-07
91.2269999999996 -163.456 70
0 0

0101101
*
Ed
 1e-07 1 1 0
1  181 0 0 2
3  371 372CN 64 0 0 2
0

0101000
+88 0 -87 0 *
Ed
 1e-07 1 1 0
1  182 0 0 6.28318530717959
2  373 64 0 0 6.28318530717959
2  374 4 0 0 6.28318530717959
0

0101000
+88 0 -88 0 *
Ed
 1e-07 1 1 0
1  183 0 0 6.28318530717959
2  375 64 0 0 6.28318530717959
2  376 6 0 0 6.28318530717959
0

0101000
+87 0 -87 0 *
Wi

0101100
+86 0 -86 0 -85 0 +84 0 *
Fa
0  1e-07 64 0

0101000
+83 0 *
Ve
1e-07
141.227 -163.456 68
0 0

0101101
*
Ve
1e-07
141.227 -163.456 70
0 0

0101101
*
Ed
 1e-07 1 1 0
1  184 0 0 2
3  377 378CN 65 0 0 2
0

0101000
+81 0 -80 0 *
Ed
 1e-07 1 1 0
1  185 0 0 6.28318530717959
2  379 65 0 0 6.28318530717959
2  380 4 0 0 6.28318530717959
0

0101000
+81 0 -81 0 *
Ed
 1e-07 1 1 0
1  186 0 0 6.28318530717959
2  381 65 0 0 6.28318530717959
2  382 6 0 0 6.28318530717959
0

0101000
+80 0 -80 0 *
Wi

0101100
+79 0 -79 0 -78 0 +77 0 *
Fa
0  1e-07 65 0

0101000
+76 0 *
Wi

0101100
-502 0 -495 0 +488 0 -481 0 -474 0 -467 0 +460 0 -453 0 +446 0 -442 0 
*
Wi

0101100
+432 0 +425 0 -418 0 -414 0 *
Wi

0101100
+404 0 +397 0 -390 0 -386 0 *
Wi

0101100
+376 0 +369 0 -362 0 -358 0 *
Wi

0101100
+348 0 +341 0 -334 0 -330 0 *
Wi

0101100
+320 0 +313 0 -306 0 -302 0 *
Wi

0101100
+292 0 +285 0 -278 0 -274 0 *
Wi

0101100
+267 0 *
Wi

0101100
+260 0 *
Wi

0101100
+253 0 *
Wi

0101100
+246 0 *
Wi

0101100
+239 0 *
Wi

0101100
+232 0 *
Wi

0101100
+225 0 *
Wi

0101100
+218 0 *
Wi

0101100
+211 0 *
Wi

0101100
+204 0 *
Wi

0101100
+197 0 *
Wi

0101100
+190 0 *
Wi

0101100
+183 0 *
Wi

0101100
+176 0 *
Wi

0101100
+169 0 *
Wi

0101100
+162 0 *
Wi

0101100
+155 0 *
Wi

0101100
+148 0 *
Wi

0101100
+141 0 *
Wi

0101100
+134 0 *
Wi

0101100
+127 0 *
Wi

0101100
+120 0 *
Wi

0101100
+113 0 *
Wi

0101100
+106 0 *
Wi

0101100
+99 0 *
Wi

0101100
+92 0 *
Wi

0101100
+85 0 *
Wi

0101100
+78 0 *
Fa
0  1e-07 4 0

0101000
+74 0 +73 0 +72 0 +71 0 +70 0 +69 0 +68 0 +67 0 +66 0 +65 0 
+64 0 +63 0 +62 0 +61 0 +60 0 +59 0 +58 0 +57 0 +56 0 +55 0 
+54 0 +53 0 +52 0 +51 0 +50 0 +49 0 +48 0 +47 0 +46 0 +45 0 
+44 0 +43 0 +42 0 +41 0 +40 0 *
Wi

0101100
-501 0 -494 0 +487 0 -480 0 -473 0 -466 0 +459 0 -452 0 +445 0 -441 0 
*
Wi

0101100
+431 0 +424 0 -417 0 -413 0 *
Wi

0101100
+403 0 +396 0 -389 0 -385 0 *
Wi

0101100
+375 0 +368 0 -361 0 -357 0 *
Wi

0101100
+347 0 +340 0 -333 0 -329 0 *
Wi

0101100
+319 0 +312 0 -305 0 -301 0 *
Wi

0101100
+291 0 +284 0 -277 0 -273 0 *
Wi

0101100
+266 0 *
Wi

0101100
+259 0 *
Wi

0101100
+252 0 *
Wi

0101100
+245 0 *
Wi

0101100
+238 0 *
Wi

0101100
+231 0 *
Wi

0101100
+224 0 *
Wi

0101100
+217 0 *
Wi

0101100
+210 0 *
Wi

0101100
+203 0 *
Wi

0101100
+196 0 *
Wi

0101100
+189 0 *
Wi

0101100
+182 0 *
Wi

0101100
+175 0 *
Wi

0101100
+168 0 *
Wi

0101100
+161 0 *
Wi

0101100
+154 0 *
Wi

0101100
+147 0 *
Wi

0101100
+140 0 *
Wi

0101100
+133 0 *
Wi

0101100
+126 0 *
Wi

0101100
+119 0 *
Wi

0101100
+112 0 *
Wi

0101100
+105 0 *
Wi

0101100
+98 0 *
Wi

0101100
+91 0 *
Wi

0101100
+84 0 *
Wi

0101100
+77 0 *
Fa
0  1e-07 6 0

0101000
+38 0 +37 0 +36 0 +35 0 +34 0 +33 0 +32 0 +31 0 +30 0 +29 0 
+28 0 +27 0 +26 0 +25 0 +24 0 +23 0 +22 0 +21 0 +20 0 +19 0 
+18 0 +17 0 +16 0 +15 0 +14 0 +13 0 +12 0 +11 0 +10 0 +9 0 
+8 0 +7 0 +6 0 +5 0 +4 0 *
Sh

0101100
-499 0 -492 0 +485 0 -478 0 -471 0 -464 0 +457 0 -450 0 +443 0 -439 0 
+429 0 +422 0 -415 0 -411 0 +401 0 +394 0 -387 0 -383 0 +373 0 +366 0 
-359 0 -355 0 +345 0 +338 0 -331 0 -327 0 +317 0 +310 0 -303 0 -299 0 
+289 0 +282 0 -275 0 -271 0 +264 0 +257 0 +250 0 +243 0 +236 0 +229 0 
+222 0 +215 0 +208 0 +201 0 +194 0 +187 0 +180 0 +173 0 +166 0 +159 0 
+152 0 +145 0 +138 0 +131 0 +124 0 +117 0 +110 0 +103 0 +96 0 +89 0 
+82 0 +75 0 +39 0 -3 0 *
So

0100000
+2 0 *

+1 0 